<?xml version="1.0" encoding="UTF-8" standalone="no"?><svg xmlns="http://www.w3.org/2000/svg" xmlns:xlink="http://www.w3.org/1999/xlink" clip-rule="evenodd" stroke-miterlimit="4.00" viewBox="0 0 1024 768"><desc>SVG generated by Keynote</desc><defs></defs><g transform="matrix(1.00, 0.00, -0.00, -1.00, 0.0, 768.0)"><path d="M 0.0 768.0 L 1024.0 768.0 L 1024.0 0.0 L 0.0 0.0 Z M 0.0 768.0 " fill="#000000"></path><g><clipPath id="clip-962"><path d="M 30.0 708.0 L 762.0 708.0 L 762.0 109.0 L 30.0 109.0 Z M 29.7 707.7 "></path></clipPath><g clip-path="url(#clip-962)"><image xlink:href="../../935D57B0-2C23-4D4C-A1E6-6C491F455D89/assets/2FED1194C0A9FFC2E1DF66174FE56C08.png" width="864.00" height="540.00" transform="matrix(1.43, 0.00, -0.00, -1.43, -106.0, 768.0)"></image></g></g><path d="M 790.7 705.6 L 1023.7 705.6 L 1023.7 -0.7 L 790.7 -0.7 Z M 790.7 705.6 " fill="#FEFFFE"></path><text xml:space="preserve" font-family="Helvetica-Bold" font-weight="bold" font-size="30.0" fill="#FEFFFF" transform="matrix(1.00, 0.00, -0.00, -1.00, 840.0, 727.0)">É</text><text xml:space="preserve" font-family="Helvetica-Bold" font-weight="bold" font-size="30.0" fill="#FEFFFF" transform="matrix(1.00, 0.00, -0.00, -1.00, 860.0, 727.0)">l</text><text xml:space="preserve" font-family="Helvetica-Bold" font-weight="bold" font-size="30.0" fill="#FEFFFF" transform="matrix(1.00, 0.00, -0.00, -1.00, 868.3, 727.0)">é</text><text xml:space="preserve" font-family="Helvetica-Bold" font-weight="bold" font-size="30.0" fill="#FEFFFF" transform="matrix(1.00, 0.00, -0.00, -1.00, 885.0, 727.0)">m</text><text xml:space="preserve" font-family="Helvetica-Bold" font-weight="bold" font-size="30.0" fill="#FEFFFF" transform="matrix(1.00, 0.00, -0.00, -1.00, 911.7, 727.0)">e</text><text xml:space="preserve" font-family="Helvetica-Bold" font-weight="bold" font-size="30.0" fill="#FEFFFF" transform="matrix(1.00, 0.00, -0.00, -1.00, 928.4, 727.0)">n</text><text xml:space="preserve" font-family="Helvetica-Bold" font-weight="bold" font-size="30.0" fill="#FEFFFF" transform="matrix(1.00, 0.00, -0.00, -1.00, 946.7, 727.0)">t</text><text xml:space="preserve" font-family="Helvetica-Bold" font-weight="bold" font-size="30.0" fill="#FEFFFF" transform="matrix(1.00, 0.00, -0.00, -1.00, 956.7, 727.0)">s</text><image xlink:href="../../7D643FA7-9A1F-45A5-A30F-7828735F3C35/assets/B860128BC00D8306CA82832CEC78FFCC.png" width="781.00" height="33.00" transform="matrix(1.00, 0.00, -0.00, -1.03, 4.0, 103.0)"></image><path d="M 2.6 144.2 L 5.8 144.2 L 5.8 44.2 L 2.6 44.2 Z M 2.6 144.2 " fill="#000000"></path><path d="M 77.6 102.7 L 78.8 102.7 L 78.8 69.3 L 77.6 69.3 Z M 77.6 102.7 " fill="#961817"></path><text xml:space="preserve" font-family="Helvetica-Light" font-size="13.5" fill="#000000" transform="matrix(1.00, 0.00, -0.00, -1.00, 825.8, 613.0)">-</text><text xml:space="preserve" font-family="Helvetica-Light" font-size="18.0" fill="#000000" transform="matrix(1.00, 0.00, -0.00, -1.00, 842.0, 611.0)">U</text><text xml:space="preserve" font-family="Helvetica-Light" font-size="18.0" fill="#000000" transform="matrix(1.00, 0.00, -0.00, -1.00, 855.0, 611.0)">n</text><text xml:space="preserve" font-family="Helvetica-Light" font-size="18.0" fill="#000000" transform="matrix(1.00, 0.00, -0.00, -1.00, 865.0, 611.0)">e</text><text xml:space="preserve" font-family="Helvetica-Light" font-size="18.0" fill="#000000" transform="matrix(1.00, 0.00, -0.00, -1.00, 875.0, 611.0)"> </text><text xml:space="preserve" font-family="Helvetica-Light" font-size="18.0" fill="#000000" transform="matrix(1.00, 0.00, -0.00, -1.00, 880.0, 611.0)">p</text><text xml:space="preserve" font-family="Helvetica-Light" font-size="18.0" fill="#000000" transform="matrix(1.00, 0.00, -0.00, -1.00, 891.0, 611.0)">e</text><text xml:space="preserve" font-family="Helvetica-Light" font-size="18.0" fill="#000000" transform="matrix(1.00, 0.00, -0.00, -1.00, 901.0, 611.0)">r</text><text xml:space="preserve" font-family="Helvetica-Light" font-size="18.0" fill="#000000" transform="matrix(1.00, 0.00, -0.00, -1.00, 907.0, 611.0)">s</text><text xml:space="preserve" font-family="Helvetica-Light" font-size="18.0" fill="#000000" transform="matrix(1.00, 0.00, -0.00, -1.00, 916.0, 611.0)">o</text><text xml:space="preserve" font-family="Helvetica-Light" font-size="18.0" fill="#000000" transform="matrix(1.00, 0.00, -0.00, -1.00, 926.0, 611.0)">n</text><text xml:space="preserve" font-family="Helvetica-Light" font-size="18.0" fill="#000000" transform="matrix(1.00, 0.00, -0.00, -1.00, 936.0, 611.0)">n</text><text xml:space="preserve" font-family="Helvetica-Light" font-size="18.0" fill="#000000" transform="matrix(1.00, 0.00, -0.00, -1.00, 946.0, 611.0)">e</text><text xml:space="preserve" font-family="Helvetica-Light" font-size="18.0" fill="#000000" transform="matrix(1.00, 0.00, -0.00, -1.00, 956.0, 611.0)"> </text><text xml:space="preserve" font-family="Helvetica-Light" font-size="13.5" fill="#000000" transform="matrix(1.00, 0.00, -0.00, -1.00, 825.8, 564.6)">-</text><text xml:space="preserve" font-family="Helvetica-Light" font-size="18.0" fill="#000000" transform="matrix(1.00, 0.00, -0.00, -1.00, 842.0, 563.0)">U</text><text xml:space="preserve" font-family="Helvetica-Light" font-size="18.0" fill="#000000" transform="matrix(1.00, 0.00, -0.00, -1.00, 855.0, 563.0)">n</text><text xml:space="preserve" font-family="Helvetica-Light" font-size="18.0" fill="#000000" transform="matrix(1.00, 0.00, -0.00, -1.00, 865.0, 563.0)"> </text><text xml:space="preserve" font-family="Helvetica-Light" font-size="18.0" fill="#000000" transform="matrix(1.00, 0.00, -0.00, -1.00, 870.0, 563.0)">o</text><text xml:space="preserve" font-family="Helvetica-Light" font-size="18.0" fill="#000000" transform="matrix(1.00, 0.00, -0.00, -1.00, 880.0, 563.0)">b</text><text xml:space="preserve" font-family="Helvetica-Light" font-size="18.0" fill="#000000" transform="matrix(1.00, 0.00, -0.00, -1.00, 891.0, 563.0)">j</text><text xml:space="preserve" font-family="Helvetica-Light" font-size="18.0" fill="#000000" transform="matrix(1.00, 0.00, -0.00, -1.00, 895.0, 563.0)">e</text><text xml:space="preserve" font-family="Helvetica-Light" font-size="18.0" fill="#000000" transform="matrix(1.00, 0.00, -0.00, -1.00, 905.0, 563.0)">t</text><text xml:space="preserve" font-family="Helvetica-Light" font-size="18.0" fill="#000000" transform="matrix(1.00, 0.00, -0.00, -1.00, 910.0, 563.0)"> </text><text xml:space="preserve" font-family="Helvetica-Light" font-size="13.5" fill="#000000" transform="matrix(1.00, 0.00, -0.00, -1.00, 825.8, 516.2)">-</text><text xml:space="preserve" font-family="Helvetica-Light" font-size="18.0" fill="#000000" transform="matrix(1.00, 0.00, -0.00, -1.00, 842.0, 514.0)">U</text><text xml:space="preserve" font-family="Helvetica-Light" font-size="18.0" fill="#000000" transform="matrix(1.00, 0.00, -0.00, -1.00, 855.0, 514.0)">n</text><text xml:space="preserve" font-family="Helvetica-Light" font-size="18.0" fill="#000000" transform="matrix(1.00, 0.00, -0.00, -1.00, 865.0, 514.0)"> </text><text xml:space="preserve" font-family="Helvetica-Light" font-size="18.0" fill="#000000" transform="matrix(1.00, 0.00, -0.00, -1.00, 870.0, 514.0)">c</text><text xml:space="preserve" font-family="Helvetica-Light" font-size="18.0" fill="#000000" transform="matrix(1.00, 0.00, -0.00, -1.00, 880.0, 514.0)">o</text><text xml:space="preserve" font-family="Helvetica-Light" font-size="18.0" fill="#000000" transform="matrix(1.00, 0.00, -0.00, -1.00, 890.0, 514.0)">m</text><text xml:space="preserve" font-family="Helvetica-Light" font-size="18.0" fill="#000000" transform="matrix(1.00, 0.00, -0.00, -1.00, 905.0, 514.0)">p</text><text xml:space="preserve" font-family="Helvetica-Light" font-size="18.0" fill="#000000" transform="matrix(1.00, 0.00, -0.00, -1.00, 916.0, 514.0)">o</text><text xml:space="preserve" font-family="Helvetica-Light" font-size="18.0" fill="#000000" transform="matrix(1.00, 0.00, -0.00, -1.00, 926.0, 514.0)">r</text><text xml:space="preserve" font-family="Helvetica-Light" font-size="18.0" fill="#000000" transform="matrix(1.00, 0.00, -0.00, -1.00, 932.3, 514.0)">t</text><text xml:space="preserve" font-family="Helvetica-Light" font-size="18.0" fill="#000000" transform="matrix(1.00, 0.00, -0.00, -1.00, 937.3, 514.0)">e</text><text xml:space="preserve" font-family="Helvetica-Light" font-size="18.0" fill="#000000" transform="matrix(1.00, 0.00, -0.00, -1.00, 947.4, 514.0)">m</text><text xml:space="preserve" font-family="Helvetica-Light" font-size="18.0" fill="#000000" transform="matrix(1.00, 0.00, -0.00, -1.00, 962.3, 514.0)">e</text><text xml:space="preserve" font-family="Helvetica-Light" font-size="18.0" fill="#000000" transform="matrix(1.00, 0.00, -0.00, -1.00, 972.4, 514.0)">n</text><text xml:space="preserve" font-family="Helvetica-Light" font-size="18.0" fill="#000000" transform="matrix(1.00, 0.00, -0.00, -1.00, 982.4, 514.0)">t</text><text xml:space="preserve" font-family="Helvetica-Bold" font-weight="bold" font-size="18.0" fill="#000000" transform="matrix(1.00, 0.00, -0.00, -1.00, 829.0, 656.0)">Q</text><text xml:space="preserve" font-family="Helvetica-Bold" font-weight="bold" font-size="18.0" fill="#000000" transform="matrix(1.00, 0.00, -0.00, -1.00, 843.0, 656.0)">u</text><text xml:space="preserve" font-family="Helvetica-Bold" font-weight="bold" font-size="18.0" fill="#000000" transform="matrix(1.00, 0.00, -0.00, -1.00, 854.0, 656.0)">e</text><text xml:space="preserve" font-family="Helvetica-Bold" font-weight="bold" font-size="18.0" fill="#000000" transform="matrix(1.00, 0.00, -0.00, -1.00, 864.0, 656.0)"> </text><text xml:space="preserve" font-family="Helvetica-Bold" font-weight="bold" font-size="18.0" fill="#000000" transform="matrix(1.00, 0.00, -0.00, -1.00, 869.0, 656.0)">v</text><text xml:space="preserve" font-family="Helvetica-Bold" font-weight="bold" font-size="18.0" fill="#000000" transform="matrix(1.00, 0.00, -0.00, -1.00, 879.0, 656.0)">o</text><text xml:space="preserve" font-family="Helvetica-Bold" font-weight="bold" font-size="18.0" fill="#000000" transform="matrix(1.00, 0.00, -0.00, -1.00, 890.0, 656.0)">y</text><text xml:space="preserve" font-family="Helvetica-Bold" font-weight="bold" font-size="18.0" fill="#000000" transform="matrix(1.00, 0.00, -0.00, -1.00, 900.0, 656.0)">e</text><text xml:space="preserve" font-family="Helvetica-Bold" font-weight="bold" font-size="18.0" fill="#000000" transform="matrix(1.00, 0.00, -0.00, -1.00, 910.0, 656.0)">z</text><text xml:space="preserve" font-family="Helvetica-Bold" font-weight="bold" font-size="18.0" fill="#000000" transform="matrix(1.00, 0.00, -0.00, -1.00, 919.0, 656.0)">-</text><text xml:space="preserve" font-family="Helvetica-Bold" font-weight="bold" font-size="18.0" fill="#000000" transform="matrix(1.00, 0.00, -0.00, -1.00, 925.0, 656.0)">v</text><text xml:space="preserve" font-family="Helvetica-Bold" font-weight="bold" font-size="18.0" fill="#000000" transform="matrix(1.00, 0.00, -0.00, -1.00, 935.0, 656.0)">o</text><text xml:space="preserve" font-family="Helvetica-Bold" font-weight="bold" font-size="18.0" fill="#000000" transform="matrix(1.00, 0.00, -0.00, -1.00, 946.0, 656.0)">u</text><text xml:space="preserve" font-family="Helvetica-Bold" font-weight="bold" font-size="18.0" fill="#000000" transform="matrix(1.00, 0.00, -0.00, -1.00, 957.0, 656.0)">s</text><text xml:space="preserve" font-family="Helvetica-Bold" font-weight="bold" font-size="18.0" fill="#000000" transform="matrix(1.00, 0.00, -0.00, -1.00, 967.0, 656.0)"> </text><text xml:space="preserve" font-family="Helvetica-Bold" font-weight="bold" font-size="18.0" fill="#000000" transform="matrix(1.00, 0.00, -0.00, -1.00, 972.0, 656.0)">?</text><image xlink:href="../../FADA1663-4DB2-4A4B-A51E-E3E00CDA0533/assets/1BFD6494ECD89F54712199058A78AC96.png" width="134.00" height="134.00" transform="matrix(0.99, 0.00, -0.00, -1.00, 865.0, 576.0)"></image><g opacity="0.30"><g><clipPath id="clip-963"><path d="M 461.0 397.0 L 597.0 397.0 L 597.0 519.0 L 461.0 519.0 Z M 461.0 397.0 "></path></clipPath><g clip-path="url(#clip-963)"><path d="M 462.0 517.0 L 595.2 517.0 L 595.2 398.8 L 462.0 398.8 Z M 462.0 517.0 " fill="#1497FC"></path></g></g></g><text xml:space="preserve" font-family="Helvetica-Bold" font-weight="bold" font-size="13.0" fill="#961817" transform="matrix(1.00, 0.00, -0.00, -1.00, 260.0, 747.0)">2</text><text xml:space="preserve" font-family="Helvetica-Bold" font-weight="bold" font-size="13.0" fill="#961817" transform="matrix(1.00, 0.00, -0.00, -1.00, 267.2, 747.0)">e</text><text xml:space="preserve" font-family="Helvetica-Bold" font-weight="bold" font-size="13.0" fill="#961817" transform="matrix(1.00, 0.00, -0.00, -1.00, 274.5, 747.0)"> </text><text xml:space="preserve" font-family="Helvetica-Bold" font-weight="bold" font-size="13.0" fill="#961817" transform="matrix(1.00, 0.00, -0.00, -1.00, 278.1, 747.0)">t</text><text xml:space="preserve" font-family="Helvetica-Bold" font-weight="bold" font-size="13.0" fill="#961817" transform="matrix(1.00, 0.00, -0.00, -1.00, 282.4, 747.0)">e</text><text xml:space="preserve" font-family="Helvetica-Bold" font-weight="bold" font-size="13.0" fill="#961817" transform="matrix(1.00, 0.00, -0.00, -1.00, 289.6, 747.0)">m</text><text xml:space="preserve" font-family="Helvetica-Bold" font-weight="bold" font-size="13.0" fill="#961817" transform="matrix(1.00, 0.00, -0.00, -1.00, 301.2, 747.0)">p</text><text xml:space="preserve" font-family="Helvetica-Bold" font-weight="bold" font-size="13.0" fill="#961817" transform="matrix(1.00, 0.00, -0.00, -1.00, 309.1, 747.0)">s</text><text xml:space="preserve" font-family="Helvetica-Bold" font-weight="bold" font-size="13.0" fill="#961817" transform="matrix(1.00, 0.00, -0.00, -1.00, 316.4, 747.0)"> </text><text xml:space="preserve" font-family="Helvetica-Bold" font-weight="bold" font-size="13.0" fill="#961817" transform="matrix(1.00, 0.00, -0.00, -1.00, 320.0, 747.0)">:</text><text xml:space="preserve" font-family="Helvetica-Bold" font-weight="bold" font-size="13.0" fill="#961817" transform="matrix(1.00, 0.00, -0.00, -1.00, 324.3, 747.0)"> </text><text xml:space="preserve" font-family="Helvetica-Bold" font-weight="bold" font-size="13.0" fill="#961817" transform="matrix(1.00, 0.00, -0.00, -1.00, 327.9, 747.0)">i</text><text xml:space="preserve" font-family="Helvetica-Bold" font-weight="bold" font-size="13.0" fill="#961817" transform="matrix(1.00, 0.00, -0.00, -1.00, 331.5, 747.0)">d</text><text xml:space="preserve" font-family="Helvetica-Bold" font-weight="bold" font-size="13.0" fill="#961817" transform="matrix(1.00, 0.00, -0.00, -1.00, 339.5, 747.0)">e</text><text xml:space="preserve" font-family="Helvetica-Bold" font-weight="bold" font-size="13.0" fill="#961817" transform="matrix(1.00, 0.00, -0.00, -1.00, 346.7, 747.0)">n</text><text xml:space="preserve" font-family="Helvetica-Bold" font-weight="bold" font-size="13.0" fill="#961817" transform="matrix(1.00, 0.00, -0.00, -1.00, 354.6, 747.0)">t</text><text xml:space="preserve" font-family="Helvetica-Bold" font-weight="bold" font-size="13.0" fill="#961817" transform="matrix(1.00, 0.00, -0.00, -1.00, 359.0, 747.0)">i</text><text xml:space="preserve" font-family="Helvetica-Bold" font-weight="bold" font-size="13.0" fill="#961817" transform="matrix(1.00, 0.00, -0.00, -1.00, 362.6, 747.0)">ﬁ</text><text xml:space="preserve" font-family="Helvetica-Bold" font-weight="bold" font-size="13.0" fill="#961817" transform="matrix(1.00, 0.00, -0.00, -1.00, 370.5, 747.0)">c</text><text xml:space="preserve" font-family="Helvetica-Bold" font-weight="bold" font-size="13.0" fill="#961817" transform="matrix(1.00, 0.00, -0.00, -1.00, 377.7, 747.0)">a</text><text xml:space="preserve" font-family="Helvetica-Bold" font-weight="bold" font-size="13.0" fill="#961817" transform="matrix(1.00, 0.00, -0.00, -1.00, 385.0, 747.0)">t</text><text xml:space="preserve" font-family="Helvetica-Bold" font-weight="bold" font-size="13.0" fill="#961817" transform="matrix(1.00, 0.00, -0.00, -1.00, 389.3, 747.0)">i</text><text xml:space="preserve" font-family="Helvetica-Bold" font-weight="bold" font-size="13.0" fill="#961817" transform="matrix(1.00, 0.00, -0.00, -1.00, 392.9, 747.0)">o</text><text xml:space="preserve" font-family="Helvetica-Bold" font-weight="bold" font-size="13.0" fill="#961817" transform="matrix(1.00, 0.00, -0.00, -1.00, 400.9, 747.0)">n</text><text xml:space="preserve" font-family="Helvetica-Bold" font-weight="bold" font-size="13.0" fill="#961817" transform="matrix(1.00, 0.00, -0.00, -1.00, 408.8, 747.0)"> </text><text xml:space="preserve" font-family="Helvetica-Bold" font-weight="bold" font-size="13.0" fill="#961817" transform="matrix(1.00, 0.00, -0.00, -1.00, 412.4, 747.0)">d</text><text xml:space="preserve" font-family="Helvetica-Bold" font-weight="bold" font-size="13.0" fill="#961817" transform="matrix(1.00, 0.00, -0.00, -1.00, 420.3, 747.0)">e</text><text xml:space="preserve" font-family="Helvetica-Bold" font-weight="bold" font-size="13.0" fill="#961817" transform="matrix(1.00, 0.00, -0.00, -1.00, 427.6, 747.0)">s</text><text xml:space="preserve" font-family="Helvetica-Bold" font-weight="bold" font-size="13.0" fill="#961817" transform="matrix(1.00, 0.00, -0.00, -1.00, 434.8, 747.0)"> </text><text xml:space="preserve" font-family="Helvetica-Bold" font-weight="bold" font-size="13.0" fill="#961817" transform="matrix(1.00, 0.00, -0.00, -1.00, 438.4, 747.0)">é</text><text xml:space="preserve" font-family="Helvetica-Bold" font-weight="bold" font-size="13.0" fill="#961817" transform="matrix(1.00, 0.00, -0.00, -1.00, 445.6, 747.0)">l</text><text xml:space="preserve" font-family="Helvetica-Bold" font-weight="bold" font-size="13.0" fill="#961817" transform="matrix(1.00, 0.00, -0.00, -1.00, 449.3, 747.0)">é</text><text xml:space="preserve" font-family="Helvetica-Bold" font-weight="bold" font-size="13.0" fill="#961817" transform="matrix(1.00, 0.00, -0.00, -1.00, 456.5, 747.0)">m</text><text xml:space="preserve" font-family="Helvetica-Bold" font-weight="bold" font-size="13.0" fill="#961817" transform="matrix(1.00, 0.00, -0.00, -1.00, 468.0, 747.0)">e</text><text xml:space="preserve" font-family="Helvetica-Bold" font-weight="bold" font-size="13.0" fill="#961817" transform="matrix(1.00, 0.00, -0.00, -1.00, 475.3, 747.0)">n</text><text xml:space="preserve" font-family="Helvetica-Bold" font-weight="bold" font-size="13.0" fill="#961817" transform="matrix(1.00, 0.00, -0.00, -1.00, 483.2, 747.0)">t</text><text xml:space="preserve" font-family="Helvetica-Bold" font-weight="bold" font-size="13.0" fill="#961817" transform="matrix(1.00, 0.00, -0.00, -1.00, 487.5, 747.0)">s</text><g opacity="0.72"><g><clipPath id="clip-964"><path d="M 377.0 385.0 L 395.0 385.0 L 395.0 432.0 L 377.0 432.0 Z M 377.0 385.0 "></path></clipPath><g clip-path="url(#clip-964)"><path d="M 379.0 430.5 L 393.9 430.5 L 393.9 386.5 L 379.0 386.5 Z M 379.0 430.5 " fill="#FEFFFE"></path></g></g></g><g opacity="0.72"><g><clipPath id="clip-965"><path d="M 396.0 385.0 L 414.0 385.0 L 414.0 432.0 L 396.0 432.0 Z M 396.0 385.0 "></path></clipPath><g clip-path="url(#clip-965)"><path d="M 397.9 430.5 L 412.7 430.5 L 412.7 386.5 L 397.9 386.5 Z M 397.9 430.5 " fill="#FEFFFE"></path></g></g></g></g></svg>