<?xml version="1.0" encoding="UTF-8" standalone="no"?><svg xmlns="http://www.w3.org/2000/svg" xmlns:xlink="http://www.w3.org/1999/xlink" clip-rule="evenodd" stroke-miterlimit="4.00" viewBox="0 0 1024 768"><desc>SVG generated by Keynote</desc><defs></defs><g transform="matrix(1.00, 0.00, -0.00, -1.00, 0.0, 768.0)"><path d="M 0.0 768.0 L 1024.0 768.0 L 1024.0 0.0 L 0.0 0.0 Z M 0.0 768.0 " fill="#000000"></path><image xlink:href="../../7D643FA7-9A1F-45A5-A30F-7828735F3C35/assets/B860128BC00D8306CA82832CEC78FFCC.png" width="781.00" height="33.00" transform="matrix(1.00, 0.00, -0.00, -1.03, 4.0, 103.0)"></image><path d="M 790.7 705.6 L 1023.7 705.6 L 1023.7 -0.7 L 790.7 -0.7 Z M 790.7 705.6 " fill="#FEFFFE"></path><text xml:space="preserve" font-family="Helvetica-Bold" font-weight="bold" font-size="30.0" fill="#FEFFFF" transform="matrix(1.00, 0.00, -0.00, -1.00, 847.0, 728.0)">R</text><text xml:space="preserve" font-family="Helvetica-Bold" font-weight="bold" font-size="30.0" fill="#FEFFFF" transform="matrix(1.00, 0.00, -0.00, -1.00, 868.7, 728.0)">e</text><text xml:space="preserve" font-family="Helvetica-Bold" font-weight="bold" font-size="30.0" fill="#FEFFFF" transform="matrix(1.00, 0.00, -0.00, -1.00, 885.4, 728.0)">g</text><text xml:space="preserve" font-family="Helvetica-Bold" font-weight="bold" font-size="30.0" fill="#FEFFFF" transform="matrix(1.00, 0.00, -0.00, -1.00, 903.7, 728.0)">a</text><text xml:space="preserve" font-family="Helvetica-Bold" font-weight="bold" font-size="30.0" fill="#FEFFFF" transform="matrix(1.00, 0.00, -0.00, -1.00, 920.4, 728.0)">r</text><text xml:space="preserve" font-family="Helvetica-Bold" font-weight="bold" font-size="30.0" fill="#FEFFFF" transform="matrix(1.00, 0.00, -0.00, -1.00, 932.1, 728.0)">d</text><text xml:space="preserve" font-family="Helvetica-Bold" font-weight="bold" font-size="30.0" fill="#FEFFFF" transform="matrix(1.00, 0.00, -0.00, -1.00, 950.4, 728.0)">s</text><text xml:space="preserve" font-family="Helvetica-Bold" font-weight="bold" font-size="13.0" fill="#961817" transform="matrix(1.00, 0.00, -0.00, -1.00, 273.0, 747.0)">3</text><text xml:space="preserve" font-family="Helvetica-Bold" font-weight="bold" font-size="13.0" fill="#961817" transform="matrix(1.00, 0.00, -0.00, -1.00, 280.2, 747.0)">e</text><text xml:space="preserve" font-family="Helvetica-Bold" font-weight="bold" font-size="13.0" fill="#961817" transform="matrix(1.00, 0.00, -0.00, -1.00, 287.5, 747.0)"> </text><text xml:space="preserve" font-family="Helvetica-Bold" font-weight="bold" font-size="13.0" fill="#961817" transform="matrix(1.00, 0.00, -0.00, -1.00, 291.1, 747.0)">t</text><text xml:space="preserve" font-family="Helvetica-Bold" font-weight="bold" font-size="13.0" fill="#961817" transform="matrix(1.00, 0.00, -0.00, -1.00, 295.4, 747.0)">e</text><text xml:space="preserve" font-family="Helvetica-Bold" font-weight="bold" font-size="13.0" fill="#961817" transform="matrix(1.00, 0.00, -0.00, -1.00, 302.6, 747.0)">m</text><text xml:space="preserve" font-family="Helvetica-Bold" font-weight="bold" font-size="13.0" fill="#961817" transform="matrix(1.00, 0.00, -0.00, -1.00, 314.2, 747.0)">p</text><text xml:space="preserve" font-family="Helvetica-Bold" font-weight="bold" font-size="13.0" fill="#961817" transform="matrix(1.00, 0.00, -0.00, -1.00, 322.1, 747.0)">s</text><text xml:space="preserve" font-family="Helvetica-Bold" font-weight="bold" font-size="13.0" fill="#961817" transform="matrix(1.00, 0.00, -0.00, -1.00, 329.4, 747.0)"> </text><text xml:space="preserve" font-family="Helvetica-Bold" font-weight="bold" font-size="13.0" fill="#961817" transform="matrix(1.00, 0.00, -0.00, -1.00, 333.0, 747.0)">:</text><text xml:space="preserve" font-family="Helvetica-Bold" font-weight="bold" font-size="13.0" fill="#961817" transform="matrix(1.00, 0.00, -0.00, -1.00, 337.3, 747.0)"> </text><text xml:space="preserve" font-family="Helvetica-Bold" font-weight="bold" font-size="13.0" fill="#961817" transform="matrix(1.00, 0.00, -0.00, -1.00, 340.9, 747.0)">d</text><text xml:space="preserve" font-family="Helvetica-Bold" font-weight="bold" font-size="13.0" fill="#961817" transform="matrix(1.00, 0.00, -0.00, -1.00, 348.9, 747.0)">é</text><text xml:space="preserve" font-family="Helvetica-Bold" font-weight="bold" font-size="13.0" fill="#961817" transform="matrix(1.00, 0.00, -0.00, -1.00, 356.1, 747.0)">c</text><text xml:space="preserve" font-family="Helvetica-Bold" font-weight="bold" font-size="13.0" fill="#961817" transform="matrix(1.00, 0.00, -0.00, -1.00, 363.3, 747.0)">o</text><text xml:space="preserve" font-family="Helvetica-Bold" font-weight="bold" font-size="13.0" fill="#961817" transform="matrix(1.00, 0.00, -0.00, -1.00, 371.3, 747.0)">u</text><text xml:space="preserve" font-family="Helvetica-Bold" font-weight="bold" font-size="13.0" fill="#961817" transform="matrix(1.00, 0.00, -0.00, -1.00, 379.2, 747.0)">v</text><text xml:space="preserve" font-family="Helvetica-Bold" font-weight="bold" font-size="13.0" fill="#961817" transform="matrix(1.00, 0.00, -0.00, -1.00, 386.4, 747.0)">e</text><text xml:space="preserve" font-family="Helvetica-Bold" font-weight="bold" font-size="13.0" fill="#961817" transform="matrix(1.00, 0.00, -0.00, -1.00, 393.7, 747.0)">r</text><text xml:space="preserve" font-family="Helvetica-Bold" font-weight="bold" font-size="13.0" fill="#961817" transform="matrix(1.00, 0.00, -0.00, -1.00, 398.7, 747.0)">t</text><text xml:space="preserve" font-family="Helvetica-Bold" font-weight="bold" font-size="13.0" fill="#961817" transform="matrix(1.00, 0.00, -0.00, -1.00, 403.1, 747.0)">e</text><text xml:space="preserve" font-family="Helvetica-Bold" font-weight="bold" font-size="13.0" fill="#961817" transform="matrix(1.00, 0.00, -0.00, -1.00, 410.3, 747.0)"> </text><text xml:space="preserve" font-family="Helvetica-Bold" font-weight="bold" font-size="13.0" fill="#961817" transform="matrix(1.00, 0.00, -0.00, -1.00, 413.9, 747.0)">d</text><text xml:space="preserve" font-family="Helvetica-Bold" font-weight="bold" font-size="13.0" fill="#961817" transform="matrix(1.00, 0.00, -0.00, -1.00, 421.8, 747.0)">e</text><text xml:space="preserve" font-family="Helvetica-Bold" font-weight="bold" font-size="13.0" fill="#961817" transform="matrix(1.00, 0.00, -0.00, -1.00, 429.1, 747.0)"> </text><text xml:space="preserve" font-family="Helvetica-Bold" font-weight="bold" font-size="13.0" fill="#961817" transform="matrix(1.00, 0.00, -0.00, -1.00, 432.7, 747.0)">r</text><text xml:space="preserve" font-family="Helvetica-Bold" font-weight="bold" font-size="13.0" fill="#961817" transform="matrix(1.00, 0.00, -0.00, -1.00, 437.7, 747.0)">e</text><text xml:space="preserve" font-family="Helvetica-Bold" font-weight="bold" font-size="13.0" fill="#961817" transform="matrix(1.00, 0.00, -0.00, -1.00, 445.0, 747.0)">g</text><text xml:space="preserve" font-family="Helvetica-Bold" font-weight="bold" font-size="13.0" fill="#961817" transform="matrix(1.00, 0.00, -0.00, -1.00, 452.9, 747.0)">a</text><text xml:space="preserve" font-family="Helvetica-Bold" font-weight="bold" font-size="13.0" fill="#961817" transform="matrix(1.00, 0.00, -0.00, -1.00, 460.1, 747.0)">r</text><text xml:space="preserve" font-family="Helvetica-Bold" font-weight="bold" font-size="13.0" fill="#961817" transform="matrix(1.00, 0.00, -0.00, -1.00, 465.2, 747.0)">d</text><text xml:space="preserve" font-family="Helvetica-Bold" font-weight="bold" font-size="13.0" fill="#961817" transform="matrix(1.00, 0.00, -0.00, -1.00, 473.1, 747.0)">s</text><path d="M 2.6 144.2 L 5.8 144.2 L 5.8 44.2 L 2.6 44.2 Z M 2.6 144.2 " fill="#000000"></path><path d="M 5.0 102.6 L 6.1 102.6 L 6.1 69.2 L 5.0 69.2 Z M 5.0 102.6 " fill="#961817"></path><path d="M 791.6 705.3 L 1024.6 705.3 L 1024.6 637.6 L 791.6 637.6 Z M 791.6 705.3 " fill="#DCDDE0"></path><path d="M 0.0 0.0 L 233.0 0.0 L 233.0 67.7 L 0.0 67.7 Z M 0.0 0.0 " fill="none" stroke="#000000" stroke-width="2.00" transform="matrix(1.00, 0.00, 0.00, -1.00, 791.6, 705.3)"></path><g><clipPath id="clip-1093"><path d="M 790.1 638.6 L 1026.1 638.6 L 1026.1 704.3 L 790.1 704.3 Z M 790.1 638.6 "></path></clipPath><g clip-path="url(#clip-1093)"><text xml:space="preserve" font-family="Helvetica-Light" font-size="26.0" fill="#000000" transform="matrix(1.00, 0.00, -0.00, -1.00, 865.0, 661.0)">A</text><text xml:space="preserve" font-family="Helvetica-Light" font-size="26.0" fill="#000000" transform="matrix(1.00, 0.00, -0.00, -1.00, 882.3, 661.0)">u</text><text xml:space="preserve" font-family="Helvetica-Light" font-size="26.0" fill="#000000" transform="matrix(1.00, 0.00, -0.00, -1.00, 896.8, 661.0)">p</text><text xml:space="preserve" font-family="Helvetica-Light" font-size="26.0" fill="#000000" transform="matrix(1.00, 0.00, -0.00, -1.00, 912.7, 661.0)">i</text><text xml:space="preserve" font-family="Helvetica-Light" font-size="26.0" fill="#000000" transform="matrix(1.00, 0.00, -0.00, -1.00, 918.5, 661.0)">a</text><text xml:space="preserve" font-family="Helvetica-Light" font-size="26.0" fill="#000000" transform="matrix(1.00, 0.00, -0.00, -1.00, 932.9, 661.0)">i</text><text xml:space="preserve" font-family="Helvetica-Light" font-size="26.0" fill="#000000" transform="matrix(1.00, 0.00, -0.00, -1.00, 938.7, 661.0)">s</text></g></g><path d="M 791.3 376.0 L 1024.2 376.0 L 1024.2 308.3 L 791.3 308.3 Z M 791.3 376.0 " fill="#DCDDE0"></path><path d="M 0.0 0.0 L 233.0 0.0 L 233.0 67.7 L 0.0 67.7 Z M 0.0 0.0 " fill="none" stroke="#000000" stroke-width="2.00" transform="matrix(1.00, 0.00, 0.00, -1.00, 791.3, 376.0)"></path><g><clipPath id="clip-1094"><path d="M 789.8 309.3 L 1025.7 309.3 L 1025.7 375.0 L 789.8 375.0 Z M 789.8 309.3 "></path></clipPath><g clip-path="url(#clip-1094)"><text xml:space="preserve" font-family="Helvetica-Light" font-size="26.0" fill="#000000" transform="matrix(1.00, 0.00, -0.00, -1.00, 860.0, 332.0)">G</text><text xml:space="preserve" font-family="Helvetica-Light" font-size="26.0" fill="#000000" transform="matrix(1.00, 0.00, -0.00, -1.00, 880.2, 332.0)">a</text><text xml:space="preserve" font-family="Helvetica-Light" font-size="26.0" fill="#000000" transform="matrix(1.00, 0.00, -0.00, -1.00, 894.7, 332.0)">d</text><text xml:space="preserve" font-family="Helvetica-Light" font-size="26.0" fill="#000000" transform="matrix(1.00, 0.00, -0.00, -1.00, 910.6, 332.0)">m</text><text xml:space="preserve" font-family="Helvetica-Light" font-size="26.0" fill="#000000" transform="matrix(1.00, 0.00, -0.00, -1.00, 932.2, 332.0)">e</text><text xml:space="preserve" font-family="Helvetica-Light" font-size="26.0" fill="#000000" transform="matrix(1.00, 0.00, -0.00, -1.00, 946.7, 332.0)">r</text></g></g><path d="M 791.9 308.9 L 1024.9 308.9 L 1024.9 231.6 L 791.9 231.6 Z M 791.9 308.9 " fill="#DCDDE0"></path><path d="M 0.0 0.0 L 233.0 0.0 L 233.0 77.2 L 0.0 77.2 Z M 0.0 0.0 " fill="none" stroke="#000000" stroke-width="2.00" transform="matrix(1.00, 0.00, 0.00, -1.00, 791.9, 308.9)"></path><g><clipPath id="clip-1095"><path d="M 790.4 232.4 L 1026.4 232.4 L 1026.4 307.9 L 790.4 307.9 Z M 790.4 232.4 "></path></clipPath><g clip-path="url(#clip-1095)"><text xml:space="preserve" font-family="Helvetica-Light" font-size="26.0" fill="#000000" transform="matrix(1.00, 0.00, -0.00, -1.00, 826.0, 276.0)">D</text><text xml:space="preserve" font-family="Helvetica-Light" font-size="26.0" fill="#000000" transform="matrix(1.00, 0.00, -0.00, -1.00, 844.8, 276.0)">a</text><text xml:space="preserve" font-family="Helvetica-Light" font-size="26.0" fill="#000000" transform="matrix(1.00, 0.00, -0.00, -1.00, 859.2, 276.0)">h</text><text xml:space="preserve" font-family="Helvetica-Light" font-size="26.0" fill="#000000" transform="matrix(1.00, 0.00, -0.00, -1.00, 873.7, 276.0)">o</text><text xml:space="preserve" font-family="Helvetica-Light" font-size="26.0" fill="#000000" transform="matrix(1.00, 0.00, -0.00, -1.00, 888.1, 276.0)">m</text><text xml:space="preserve" font-family="Helvetica-Light" font-size="26.0" fill="#000000" transform="matrix(1.00, 0.00, -0.00, -1.00, 909.8, 276.0)">é</text><text xml:space="preserve" font-family="Helvetica-Light" font-size="26.0" fill="#000000" transform="matrix(1.00, 0.00, -0.00, -1.00, 924.3, 276.0)">e</text><text xml:space="preserve" font-family="Helvetica-Light" font-size="26.0" fill="#000000" transform="matrix(1.00, 0.00, -0.00, -1.00, 938.7, 276.0)">n</text><text xml:space="preserve" font-family="Helvetica-Light" font-size="26.0" fill="#000000" transform="matrix(1.00, 0.00, -0.00, -1.00, 953.2, 276.0)"> </text><text xml:space="preserve" font-family="Helvetica-Light" font-size="26.0" fill="#000000" transform="matrix(1.00, 0.00, -0.00, -1.00, 960.4, 276.0)">d</text><text xml:space="preserve" font-family="Helvetica-Light" font-size="26.0" fill="#000000" transform="matrix(1.00, 0.00, -0.00, -1.00, 976.3, 276.0)">e</text><text xml:space="preserve" font-family="Helvetica-Light" font-size="26.0" fill="#000000" transform="matrix(1.00, 0.00, -0.00, -1.00, 990.7, 276.0)"> </text><text xml:space="preserve" font-family="Helvetica-Light" font-size="26.0" fill="#000000" transform="matrix(1.00, 0.00, -0.00, -1.00, 858.0, 245.0)">l</text><text xml:space="preserve" font-family="Helvetica-Light" font-size="26.0" fill="#000000" transform="matrix(1.00, 0.00, -0.00, -1.00, 863.8, 245.0)">’</text><text xml:space="preserve" font-family="Helvetica-Light" font-size="26.0" fill="#000000" transform="matrix(1.00, 0.00, -0.00, -1.00, 869.5, 245.0)">é</text><text xml:space="preserve" font-family="Helvetica-Light" font-size="26.0" fill="#000000" transform="matrix(1.00, 0.00, -0.00, -1.00, 884.0, 245.0)">p</text><text xml:space="preserve" font-family="Helvetica-Light" font-size="26.0" fill="#000000" transform="matrix(1.00, 0.00, -0.00, -1.00, 899.9, 245.0)">o</text><text xml:space="preserve" font-family="Helvetica-Light" font-size="26.0" fill="#000000" transform="matrix(1.00, 0.00, -0.00, -1.00, 914.3, 245.0)">q</text><text xml:space="preserve" font-family="Helvetica-Light" font-size="26.0" fill="#000000" transform="matrix(1.00, 0.00, -0.00, -1.00, 930.2, 245.0)">u</text><text xml:space="preserve" font-family="Helvetica-Light" font-size="26.0" fill="#000000" transform="matrix(1.00, 0.00, -0.00, -1.00, 944.7, 245.0)">e</text></g></g><path d="M 791.9 231.7 L 1024.9 231.7 L 1024.9 154.5 L 791.9 154.5 Z M 791.9 231.7 " fill="#DCDDE0"></path><path d="M 0.0 0.0 L 233.0 0.0 L 233.0 77.2 L 0.0 77.2 Z M 0.0 0.0 " fill="none" stroke="#000000" stroke-width="2.00" transform="matrix(1.00, 0.00, 0.00, -1.00, 791.9, 231.7)"></path><g><clipPath id="clip-1096"><path d="M 790.4 155.2 L 1026.4 155.2 L 1026.4 230.7 L 790.4 230.7 Z M 790.4 155.2 "></path></clipPath><g clip-path="url(#clip-1096)"><text xml:space="preserve" font-family="Helvetica-Light" font-size="26.0" fill="#000000" transform="matrix(1.00, 0.00, -0.00, -1.00, 859.0, 199.0)">B</text><text xml:space="preserve" font-family="Helvetica-Light" font-size="26.0" fill="#000000" transform="matrix(1.00, 0.00, -0.00, -1.00, 876.3, 199.0)">é</text><text xml:space="preserve" font-family="Helvetica-Light" font-size="26.0" fill="#000000" transform="matrix(1.00, 0.00, -0.00, -1.00, 890.8, 199.0)">n</text><text xml:space="preserve" font-family="Helvetica-Light" font-size="26.0" fill="#000000" transform="matrix(1.00, 0.00, -0.00, -1.00, 905.3, 199.0)">i</text><text xml:space="preserve" font-family="Helvetica-Light" font-size="26.0" fill="#000000" transform="matrix(1.00, 0.00, -0.00, -1.00, 911.0, 199.0)">n</text><text xml:space="preserve" font-family="Helvetica-Light" font-size="26.0" fill="#000000" transform="matrix(1.00, 0.00, -0.00, -1.00, 925.5, 199.0)">o</text><text xml:space="preserve" font-family="Helvetica-Light" font-size="26.0" fill="#000000" transform="matrix(1.00, 0.00, -0.00, -1.00, 939.9, 199.0)">i</text><text xml:space="preserve" font-family="Helvetica-Light" font-size="26.0" fill="#000000" transform="matrix(1.00, 0.00, -0.00, -1.00, 945.7, 199.0)">s</text><text xml:space="preserve" font-family="Helvetica-Light" font-size="26.0" fill="#000000" transform="matrix(1.00, 0.00, -0.00, -1.00, 958.7, 199.0)"> </text><text xml:space="preserve" font-family="Helvetica-Light" font-size="26.0" fill="#000000" transform="matrix(1.00, 0.00, -0.00, -1.00, 849.0, 168.0)">p</text><text xml:space="preserve" font-family="Helvetica-Light" font-size="26.0" fill="#000000" transform="matrix(1.00, 0.00, -0.00, -1.00, 864.9, 168.0)">r</text><text xml:space="preserve" font-family="Helvetica-Light" font-size="26.0" fill="#000000" transform="matrix(1.00, 0.00, -0.00, -1.00, 873.5, 168.0)">a</text><text xml:space="preserve" font-family="Helvetica-Light" font-size="26.0" fill="#000000" transform="matrix(1.00, 0.00, -0.00, -1.00, 888.0, 168.0)">t</text><text xml:space="preserve" font-family="Helvetica-Light" font-size="26.0" fill="#000000" transform="matrix(1.00, 0.00, -0.00, -1.00, 895.2, 168.0)">i</text><text xml:space="preserve" font-family="Helvetica-Light" font-size="26.0" fill="#000000" transform="matrix(1.00, 0.00, -0.00, -1.00, 901.0, 168.0)">q</text><text xml:space="preserve" font-family="Helvetica-Light" font-size="26.0" fill="#000000" transform="matrix(1.00, 0.00, -0.00, -1.00, 916.9, 168.0)">u</text><text xml:space="preserve" font-family="Helvetica-Light" font-size="26.0" fill="#000000" transform="matrix(1.00, 0.00, -0.00, -1.00, 931.3, 168.0)">a</text><text xml:space="preserve" font-family="Helvetica-Light" font-size="26.0" fill="#000000" transform="matrix(1.00, 0.00, -0.00, -1.00, 945.8, 168.0)">n</text><text xml:space="preserve" font-family="Helvetica-Light" font-size="26.0" fill="#000000" transform="matrix(1.00, 0.00, -0.00, -1.00, 960.3, 168.0)">t</text></g></g><path d="M 791.9 154.5 L 1024.9 154.5 L 1024.9 77.3 L 791.9 77.3 Z M 791.9 154.5 " fill="#DCDDE0"></path><path d="M 0.0 0.0 L 233.0 0.0 L 233.0 77.2 L 0.0 77.2 Z M 0.0 0.0 " fill="none" stroke="#000000" stroke-width="2.00" transform="matrix(1.00, 0.00, 0.00, -1.00, 791.9, 154.5)"></path><g><clipPath id="clip-1097"><path d="M 790.4 78.0 L 1026.4 78.0 L 1026.4 153.5 L 790.4 153.5 Z M 790.4 78.0 "></path></clipPath><g clip-path="url(#clip-1097)"><text xml:space="preserve" font-family="Helvetica-Light" font-size="26.0" fill="#000000" transform="matrix(1.00, 0.00, -0.00, -1.00, 843.0, 122.0)">E</text><text xml:space="preserve" font-family="Helvetica-Light" font-size="26.0" fill="#000000" transform="matrix(1.00, 0.00, -0.00, -1.00, 858.9, 122.0)">t</text><text xml:space="preserve" font-family="Helvetica-Light" font-size="26.0" fill="#000000" transform="matrix(1.00, 0.00, -0.00, -1.00, 866.1, 122.0)">h</text><text xml:space="preserve" font-family="Helvetica-Light" font-size="26.0" fill="#000000" transform="matrix(1.00, 0.00, -0.00, -1.00, 880.6, 122.0)">n</text><text xml:space="preserve" font-family="Helvetica-Light" font-size="26.0" fill="#000000" transform="matrix(1.00, 0.00, -0.00, -1.00, 895.0, 122.0)">o</text><text xml:space="preserve" font-family="Helvetica-Light" font-size="26.0" fill="#000000" transform="matrix(1.00, 0.00, -0.00, -1.00, 909.5, 122.0)">l</text><text xml:space="preserve" font-family="Helvetica-Light" font-size="26.0" fill="#000000" transform="matrix(1.00, 0.00, -0.00, -1.00, 915.3, 122.0)">o</text><text xml:space="preserve" font-family="Helvetica-Light" font-size="26.0" fill="#000000" transform="matrix(1.00, 0.00, -0.00, -1.00, 929.7, 122.0)">g</text><text xml:space="preserve" font-family="Helvetica-Light" font-size="26.0" fill="#000000" transform="matrix(1.00, 0.00, -0.00, -1.00, 945.6, 122.0)">u</text><text xml:space="preserve" font-family="Helvetica-Light" font-size="26.0" fill="#000000" transform="matrix(1.00, 0.00, -0.00, -1.00, 960.1, 122.0)">e</text><text xml:space="preserve" font-family="Helvetica-Light" font-size="26.0" fill="#000000" transform="matrix(1.00, 0.00, -0.00, -1.00, 974.5, 122.0)"> </text><text xml:space="preserve" font-family="Helvetica-Light" font-size="26.0" fill="#000000" transform="matrix(1.00, 0.00, -0.00, -1.00, 807.0, 91.0)">e</text><text xml:space="preserve" font-family="Helvetica-Light" font-size="26.0" fill="#000000" transform="matrix(1.00, 0.00, -0.00, -1.00, 821.5, 91.0)">u</text><text xml:space="preserve" font-family="Helvetica-Light" font-size="26.0" fill="#000000" transform="matrix(1.00, 0.00, -0.00, -1.00, 835.9, 91.0)">r</text><text xml:space="preserve" font-family="Helvetica-Light" font-size="26.0" fill="#000000" transform="matrix(1.00, 0.00, -0.00, -1.00, 844.1, 91.0)">o</text><text xml:space="preserve" font-family="Helvetica-Light" font-size="26.0" fill="#000000" transform="matrix(1.00, 0.00, -0.00, -1.00, 858.6, 91.0)">p</text><text xml:space="preserve" font-family="Helvetica-Light" font-size="26.0" fill="#000000" transform="matrix(1.00, 0.00, -0.00, -1.00, 874.4, 91.0)">é</text><text xml:space="preserve" font-family="Helvetica-Light" font-size="26.0" fill="#000000" transform="matrix(1.00, 0.00, -0.00, -1.00, 888.9, 91.0)">e</text><text xml:space="preserve" font-family="Helvetica-Light" font-size="26.0" fill="#000000" transform="matrix(1.00, 0.00, -0.00, -1.00, 903.4, 91.0)">n</text><text xml:space="preserve" font-family="Helvetica-Light" font-size="26.0" fill="#000000" transform="matrix(1.00, 0.00, -0.00, -1.00, 917.8, 91.0)"> </text><text xml:space="preserve" font-family="Helvetica-Light" font-size="26.0" fill="#000000" transform="matrix(1.00, 0.00, -0.00, -1.00, 925.0, 91.0)">d</text><text xml:space="preserve" font-family="Helvetica-Light" font-size="26.0" fill="#000000" transform="matrix(1.00, 0.00, -0.00, -1.00, 940.9, 91.0)">u</text><text xml:space="preserve" font-family="Helvetica-Light" font-size="26.0" fill="#000000" transform="matrix(1.00, 0.00, -0.00, -1.00, 955.4, 91.0)"> </text><text xml:space="preserve" font-family="Helvetica-Light" font-size="26.0" fill="#000000" transform="matrix(1.00, 0.00, -0.00, -1.00, 962.6, 91.0)">X</text><text xml:space="preserve" font-family="Helvetica-Light" font-size="26.0" fill="#000000" transform="matrix(1.00, 0.00, -0.00, -1.00, 978.5, 91.0)">X</text><text xml:space="preserve" font-family="Helvetica-Light" font-size="26.0" fill="#000000" transform="matrix(1.00, 0.00, -0.00, -1.00, 994.4, 91.0)">e</text></g></g><path d="M 791.9 77.9 L 1024.9 77.9 L 1024.9 0.7 L 791.9 0.7 Z M 791.9 77.9 " fill="#DCDDE0"></path><path d="M 0.0 0.0 L 233.0 0.0 L 233.0 77.2 L 0.0 77.2 Z M 0.0 0.0 " fill="none" stroke="#000000" stroke-width="2.00" transform="matrix(1.00, 0.00, 0.00, -1.00, 791.9, 77.9)"></path><g><clipPath id="clip-1098"><path d="M 790.4 1.4 L 1026.4 1.4 L 1026.4 76.9 L 790.4 76.9 Z M 790.4 1.4 "></path></clipPath><g clip-path="url(#clip-1098)"><text xml:space="preserve" font-family="Helvetica-Light" font-size="26.0" fill="#000000" transform="matrix(1.00, 0.00, -0.00, -1.00, 843.0, 45.0)">E</text><text xml:space="preserve" font-family="Helvetica-Light" font-size="26.0" fill="#000000" transform="matrix(1.00, 0.00, -0.00, -1.00, 858.9, 45.0)">t</text><text xml:space="preserve" font-family="Helvetica-Light" font-size="26.0" fill="#000000" transform="matrix(1.00, 0.00, -0.00, -1.00, 866.1, 45.0)">h</text><text xml:space="preserve" font-family="Helvetica-Light" font-size="26.0" fill="#000000" transform="matrix(1.00, 0.00, -0.00, -1.00, 880.6, 45.0)">n</text><text xml:space="preserve" font-family="Helvetica-Light" font-size="26.0" fill="#000000" transform="matrix(1.00, 0.00, -0.00, -1.00, 895.0, 45.0)">o</text><text xml:space="preserve" font-family="Helvetica-Light" font-size="26.0" fill="#000000" transform="matrix(1.00, 0.00, -0.00, -1.00, 909.5, 45.0)">l</text><text xml:space="preserve" font-family="Helvetica-Light" font-size="26.0" fill="#000000" transform="matrix(1.00, 0.00, -0.00, -1.00, 915.3, 45.0)">o</text><text xml:space="preserve" font-family="Helvetica-Light" font-size="26.0" fill="#000000" transform="matrix(1.00, 0.00, -0.00, -1.00, 929.7, 45.0)">g</text><text xml:space="preserve" font-family="Helvetica-Light" font-size="26.0" fill="#000000" transform="matrix(1.00, 0.00, -0.00, -1.00, 945.6, 45.0)">u</text><text xml:space="preserve" font-family="Helvetica-Light" font-size="26.0" fill="#000000" transform="matrix(1.00, 0.00, -0.00, -1.00, 960.1, 45.0)">e</text><text xml:space="preserve" font-family="Helvetica-Light" font-size="26.0" fill="#000000" transform="matrix(1.00, 0.00, -0.00, -1.00, 974.5, 45.0)"> </text><text xml:space="preserve" font-family="Helvetica-Light" font-size="26.0" fill="#000000" transform="matrix(1.00, 0.00, -0.00, -1.00, 804.0, 14.0)">e</text><text xml:space="preserve" font-family="Helvetica-Light" font-size="26.0" fill="#000000" transform="matrix(1.00, 0.00, -0.00, -1.00, 818.5, 14.0)">u</text><text xml:space="preserve" font-family="Helvetica-Light" font-size="26.0" fill="#000000" transform="matrix(1.00, 0.00, -0.00, -1.00, 832.9, 14.0)">r</text><text xml:space="preserve" font-family="Helvetica-Light" font-size="26.0" fill="#000000" transform="matrix(1.00, 0.00, -0.00, -1.00, 841.1, 14.0)">o</text><text xml:space="preserve" font-family="Helvetica-Light" font-size="26.0" fill="#000000" transform="matrix(1.00, 0.00, -0.00, -1.00, 855.6, 14.0)">p</text><text xml:space="preserve" font-family="Helvetica-Light" font-size="26.0" fill="#000000" transform="matrix(1.00, 0.00, -0.00, -1.00, 871.4, 14.0)">é</text><text xml:space="preserve" font-family="Helvetica-Light" font-size="26.0" fill="#000000" transform="matrix(1.00, 0.00, -0.00, -1.00, 885.9, 14.0)">e</text><text xml:space="preserve" font-family="Helvetica-Light" font-size="26.0" fill="#000000" transform="matrix(1.00, 0.00, -0.00, -1.00, 900.4, 14.0)">n</text><text xml:space="preserve" font-family="Helvetica-Light" font-size="26.0" fill="#000000" transform="matrix(1.00, 0.00, -0.00, -1.00, 914.8, 14.0)"> </text><text xml:space="preserve" font-family="Helvetica-Light" font-size="26.0" fill="#000000" transform="matrix(1.00, 0.00, -0.00, -1.00, 922.0, 14.0)">d</text><text xml:space="preserve" font-family="Helvetica-Light" font-size="26.0" fill="#000000" transform="matrix(1.00, 0.00, -0.00, -1.00, 937.9, 14.0)">u</text><text xml:space="preserve" font-family="Helvetica-Light" font-size="26.0" fill="#000000" transform="matrix(1.00, 0.00, -0.00, -1.00, 952.4, 14.0)"> </text><text xml:space="preserve" font-family="Helvetica-Light" font-size="26.0" fill="#000000" transform="matrix(1.00, 0.00, -0.00, -1.00, 959.6, 14.0)">X</text><text xml:space="preserve" font-family="Helvetica-Light" font-size="26.0" fill="#000000" transform="matrix(1.00, 0.00, -0.00, -1.00, 975.5, 14.0)">X</text><text xml:space="preserve" font-family="Helvetica-Light" font-size="26.0" fill="#000000" transform="matrix(1.00, 0.00, -0.00, -1.00, 991.4, 14.0)">I</text><text xml:space="preserve" font-family="Helvetica-Light" font-size="26.0" fill="#000000" transform="matrix(1.00, 0.00, -0.00, -1.00, 998.6, 14.0)">e</text></g></g><g opacity="0.82"><g><clipPath id="clip-1099"><path d="M 889.0 453.0 L 926.0 453.0 L 926.0 500.0 L 889.0 500.0 Z M 889.0 453.0 "></path></clipPath><g clip-path="url(#clip-1099)"><path d="M 924.3 476.2 L 890.1 498.3 L 890.1 454.1 Z M 924.3 476.2 " fill="#000000"></path></g></g></g><text xml:space="preserve" font-family="Helvetica-Light" font-size="13.0" fill="#000000" transform="matrix(1.00, 0.00, -0.00, -1.00, 811.0, 608.0)">T</text><text xml:space="preserve" font-family="Helvetica-Light" font-size="13.0" fill="#000000" transform="matrix(1.00, 0.00, -0.00, -1.00, 816.8, 608.0)">e</text><text xml:space="preserve" font-family="Helvetica-Light" font-size="13.0" fill="#000000" transform="matrix(1.00, 0.00, -0.00, -1.00, 824.0, 608.0)">x</text><text xml:space="preserve" font-family="Helvetica-Light" font-size="13.0" fill="#000000" transform="matrix(1.00, 0.00, -0.00, -1.00, 830.5, 608.0)">t</text><text xml:space="preserve" font-family="Helvetica-Light" font-size="13.0" fill="#000000" transform="matrix(1.00, 0.00, -0.00, -1.00, 834.1, 608.0)">e</text><text xml:space="preserve" font-family="Helvetica-Light" font-size="13.0" fill="#000000" transform="matrix(1.00, 0.00, -0.00, -1.00, 841.4, 608.0)"> </text><text xml:space="preserve" font-family="Helvetica-Light" font-size="13.0" fill="#000000" transform="matrix(1.00, 0.00, -0.00, -1.00, 845.0, 608.0)">i</text><text xml:space="preserve" font-family="Helvetica-Light" font-size="13.0" fill="#000000" transform="matrix(1.00, 0.00, -0.00, -1.00, 847.9, 608.0)">n</text><text xml:space="preserve" font-family="Helvetica-Light" font-size="13.0" fill="#000000" transform="matrix(1.00, 0.00, -0.00, -1.00, 855.2, 608.0)">t</text><text xml:space="preserve" font-family="Helvetica-Light" font-size="13.0" fill="#000000" transform="matrix(1.00, 0.00, -0.00, -1.00, 858.8, 608.0)">r</text><text xml:space="preserve" font-family="Helvetica-Light" font-size="13.0" fill="#000000" transform="matrix(1.00, 0.00, -0.00, -1.00, 862.9, 608.0)">o</text><text xml:space="preserve" font-family="Helvetica-Light" font-size="13.0" fill="#000000" transform="matrix(1.00, 0.00, -0.00, -1.00, 870.1, 608.0)">d</text><text xml:space="preserve" font-family="Helvetica-Light" font-size="13.0" fill="#000000" transform="matrix(1.00, 0.00, -0.00, -1.00, 878.0, 608.0)">u</text><text xml:space="preserve" font-family="Helvetica-Light" font-size="13.0" fill="#000000" transform="matrix(1.00, 0.00, -0.00, -1.00, 885.3, 608.0)">c</text><text xml:space="preserve" font-family="Helvetica-Light" font-size="13.0" fill="#000000" transform="matrix(1.00, 0.00, -0.00, -1.00, 892.5, 608.0)">t</text><text xml:space="preserve" font-family="Helvetica-Light" font-size="13.0" fill="#000000" transform="matrix(1.00, 0.00, -0.00, -1.00, 896.1, 608.0)">i</text><text xml:space="preserve" font-family="Helvetica-Light" font-size="13.0" fill="#000000" transform="matrix(1.00, 0.00, -0.00, -1.00, 899.0, 608.0)">f</text><text xml:space="preserve" font-family="Helvetica-Light" font-size="13.0" fill="#000000" transform="matrix(1.00, 0.00, -0.00, -1.00, 902.6, 608.0)"> </text><text xml:space="preserve" font-family="Helvetica-Light" font-size="13.0" fill="#000000" transform="matrix(1.00, 0.00, -0.00, -1.00, 906.3, 608.0)">p</text><text xml:space="preserve" font-family="Helvetica-Light" font-size="13.0" fill="#000000" transform="matrix(1.00, 0.00, -0.00, -1.00, 914.2, 608.0)">o</text><text xml:space="preserve" font-family="Helvetica-Light" font-size="13.0" fill="#000000" transform="matrix(1.00, 0.00, -0.00, -1.00, 921.5, 608.0)">u</text><text xml:space="preserve" font-family="Helvetica-Light" font-size="13.0" fill="#000000" transform="matrix(1.00, 0.00, -0.00, -1.00, 928.7, 608.0)">r</text><text xml:space="preserve" font-family="Helvetica-Light" font-size="13.0" fill="#000000" transform="matrix(1.00, 0.00, -0.00, -1.00, 933.0, 608.0)"> </text><text xml:space="preserve" font-family="Helvetica-Light" font-size="13.0" fill="#000000" transform="matrix(1.00, 0.00, -0.00, -1.00, 936.7, 608.0)">p</text><text xml:space="preserve" font-family="Helvetica-Light" font-size="13.0" fill="#000000" transform="matrix(1.00, 0.00, -0.00, -1.00, 944.7, 608.0)">r</text><text xml:space="preserve" font-family="Helvetica-Light" font-size="13.0" fill="#000000" transform="matrix(1.00, 0.00, -0.00, -1.00, 948.8, 608.0)">é</text><text xml:space="preserve" font-family="Helvetica-Light" font-size="13.0" fill="#000000" transform="matrix(1.00, 0.00, -0.00, -1.00, 956.0, 608.0)">s</text><text xml:space="preserve" font-family="Helvetica-Light" font-size="13.0" fill="#000000" transform="matrix(1.00, 0.00, -0.00, -1.00, 962.5, 608.0)">e</text><text xml:space="preserve" font-family="Helvetica-Light" font-size="13.0" fill="#000000" transform="matrix(1.00, 0.00, -0.00, -1.00, 969.7, 608.0)">n</text><text xml:space="preserve" font-family="Helvetica-Light" font-size="13.0" fill="#000000" transform="matrix(1.00, 0.00, -0.00, -1.00, 976.9, 608.0)">t</text><text xml:space="preserve" font-family="Helvetica-Light" font-size="13.0" fill="#000000" transform="matrix(1.00, 0.00, -0.00, -1.00, 980.6, 608.0)">e</text><text xml:space="preserve" font-family="Helvetica-Light" font-size="13.0" fill="#000000" transform="matrix(1.00, 0.00, -0.00, -1.00, 987.8, 608.0)">r</text><text xml:space="preserve" font-family="Helvetica-Light" font-size="13.0" fill="#000000" transform="matrix(1.00, 0.00, -0.00, -1.00, 992.1, 608.0)"> </text><text xml:space="preserve" font-family="Helvetica-Light" font-size="13.0" fill="#000000" transform="matrix(1.00, 0.00, -0.00, -1.00, 995.8, 608.0)">l</text><text xml:space="preserve" font-family="Helvetica-Light" font-size="13.0" fill="#000000" transform="matrix(1.00, 0.00, -0.00, -1.00, 998.7, 608.0)">e</text><text xml:space="preserve" font-family="Helvetica-Light" font-size="13.0" fill="#000000" transform="matrix(1.00, 0.00, -0.00, -1.00, 1005.9, 608.0)"> </text><text xml:space="preserve" font-family="Helvetica-Light" font-size="13.0" fill="#000000" transform="matrix(1.00, 0.00, -0.00, -1.00, 811.0, 592.0)">r</text><text xml:space="preserve" font-family="Helvetica-Light" font-size="13.0" fill="#000000" transform="matrix(1.00, 0.00, -0.00, -1.00, 815.1, 592.0)">e</text><text xml:space="preserve" font-family="Helvetica-Light" font-size="13.0" fill="#000000" transform="matrix(1.00, 0.00, -0.00, -1.00, 822.3, 592.0)">g</text><text xml:space="preserve" font-family="Helvetica-Light" font-size="13.0" fill="#000000" transform="matrix(1.00, 0.00, -0.00, -1.00, 830.3, 592.0)">a</text><text xml:space="preserve" font-family="Helvetica-Light" font-size="13.0" fill="#000000" transform="matrix(1.00, 0.00, -0.00, -1.00, 837.5, 592.0)">r</text><text xml:space="preserve" font-family="Helvetica-Light" font-size="13.0" fill="#000000" transform="matrix(1.00, 0.00, -0.00, -1.00, 841.6, 592.0)">d</text><text xml:space="preserve" font-family="Helvetica-Light" font-size="13.0" fill="#000000" transform="matrix(1.00, 0.00, -0.00, -1.00, 849.5, 592.0)">.</text><text xml:space="preserve" font-family="Helvetica-Light" font-size="13.0" fill="#000000" transform="matrix(1.00, 0.00, -0.00, -1.00, 853.1, 592.0)"> </text><text xml:space="preserve" font-family="Helvetica-Light" font-size="13.0" fill="#000000" transform="matrix(1.00, 0.00, -0.00, -1.00, 862.3, 592.0)">I</text><text xml:space="preserve" font-family="Helvetica-Light" font-size="13.0" fill="#000000" transform="matrix(1.00, 0.00, -0.00, -1.00, 865.9, 592.0)">n</text><text xml:space="preserve" font-family="Helvetica-Light" font-size="13.0" fill="#000000" transform="matrix(1.00, 0.00, -0.00, -1.00, 873.2, 592.0)">d</text><text xml:space="preserve" font-family="Helvetica-Light" font-size="13.0" fill="#000000" transform="matrix(1.00, 0.00, -0.00, -1.00, 881.1, 592.0)">i</text><text xml:space="preserve" font-family="Helvetica-Light" font-size="13.0" fill="#000000" transform="matrix(1.00, 0.00, -0.00, -1.00, 884.0, 592.0)">c</text><text xml:space="preserve" font-family="Helvetica-Light" font-size="13.0" fill="#000000" transform="matrix(1.00, 0.00, -0.00, -1.00, 891.2, 592.0)">a</text><text xml:space="preserve" font-family="Helvetica-Light" font-size="13.0" fill="#000000" transform="matrix(1.00, 0.00, -0.00, -1.00, 898.4, 592.0)">t</text><text xml:space="preserve" font-family="Helvetica-Light" font-size="13.0" fill="#000000" transform="matrix(1.00, 0.00, -0.00, -1.00, 902.1, 592.0)">i</text><text xml:space="preserve" font-family="Helvetica-Light" font-size="13.0" fill="#000000" transform="matrix(1.00, 0.00, -0.00, -1.00, 904.9, 592.0)">o</text><text xml:space="preserve" font-family="Helvetica-Light" font-size="13.0" fill="#000000" transform="matrix(1.00, 0.00, -0.00, -1.00, 912.2, 592.0)">n</text><text xml:space="preserve" font-family="Helvetica-Light" font-size="13.0" fill="#000000" transform="matrix(1.00, 0.00, -0.00, -1.00, 919.4, 592.0)"> </text><text xml:space="preserve" font-family="Helvetica-Light" font-size="13.0" fill="#000000" transform="matrix(1.00, 0.00, -0.00, -1.00, 928.6, 592.0)">d</text><text xml:space="preserve" font-family="Helvetica-Light" font-size="13.0" fill="#000000" transform="matrix(1.00, 0.00, -0.00, -1.00, 936.5, 592.0)">e</text><text xml:space="preserve" font-family="Helvetica-Light" font-size="13.0" fill="#000000" transform="matrix(1.00, 0.00, -0.00, -1.00, 943.7, 592.0)"> </text><text xml:space="preserve" font-family="Helvetica-Light" font-size="13.0" fill="#000000" transform="matrix(1.00, 0.00, -0.00, -1.00, 952.9, 592.0)">l</text><text xml:space="preserve" font-family="Helvetica-Light" font-size="13.0" fill="#000000" transform="matrix(1.00, 0.00, -0.00, -1.00, 955.8, 592.0)">a</text><text xml:space="preserve" font-family="Helvetica-Light" font-size="13.0" fill="#000000" transform="matrix(1.00, 0.00, -0.00, -1.00, 963.0, 592.0)"> </text><text xml:space="preserve" font-family="Helvetica-Light" font-size="13.0" fill="#000000" transform="matrix(1.00, 0.00, -0.00, -1.00, 972.2, 592.0)">d</text><text xml:space="preserve" font-family="Helvetica-Light" font-size="13.0" fill="#000000" transform="matrix(1.00, 0.00, -0.00, -1.00, 980.1, 592.0)">u</text><text xml:space="preserve" font-family="Helvetica-Light" font-size="13.0" fill="#000000" transform="matrix(1.00, 0.00, -0.00, -1.00, 987.4, 592.0)">r</text><text xml:space="preserve" font-family="Helvetica-Light" font-size="13.0" fill="#000000" transform="matrix(1.00, 0.00, -0.00, -1.00, 991.5, 592.0)">é</text><text xml:space="preserve" font-family="Helvetica-Light" font-size="13.0" fill="#000000" transform="matrix(1.00, 0.00, -0.00, -1.00, 998.7, 592.0)">e</text><text xml:space="preserve" font-family="Helvetica-Light" font-size="13.0" fill="#000000" transform="matrix(1.00, 0.00, -0.00, -1.00, 1005.9, 592.0)"> </text><text xml:space="preserve" font-family="Helvetica-Light" font-size="13.0" fill="#000000" transform="matrix(1.00, 0.00, -0.00, -1.00, 811.0, 576.0)">d</text><text xml:space="preserve" font-family="Helvetica-Light" font-size="13.0" fill="#000000" transform="matrix(1.00, 0.00, -0.00, -1.00, 818.9, 576.0)">’</text><text xml:space="preserve" font-family="Helvetica-Light" font-size="13.0" fill="#000000" transform="matrix(1.00, 0.00, -0.00, -1.00, 821.8, 576.0)">é</text><text xml:space="preserve" font-family="Helvetica-Light" font-size="13.0" fill="#000000" transform="matrix(1.00, 0.00, -0.00, -1.00, 829.1, 576.0)">c</text><text xml:space="preserve" font-family="Helvetica-Light" font-size="13.0" fill="#000000" transform="matrix(1.00, 0.00, -0.00, -1.00, 836.3, 576.0)">o</text><text xml:space="preserve" font-family="Helvetica-Light" font-size="13.0" fill="#000000" transform="matrix(1.00, 0.00, -0.00, -1.00, 843.5, 576.0)">u</text><text xml:space="preserve" font-family="Helvetica-Light" font-size="13.0" fill="#000000" transform="matrix(1.00, 0.00, -0.00, -1.00, 850.7, 576.0)">t</text><text xml:space="preserve" font-family="Helvetica-Light" font-size="13.0" fill="#000000" transform="matrix(1.00, 0.00, -0.00, -1.00, 854.4, 576.0)">e</text><text xml:space="preserve" font-family="Helvetica-Light" font-size="13.0" fill="#000000" transform="matrix(1.00, 0.00, -0.00, -1.00, 861.6, 576.0)">.</text><image xlink:href="../../FADA1663-4DB2-4A4B-A51E-E3E00CDA0533/assets/1BFD6494ECD89F54712199058A78AC96.png" width="134.00" height="134.00" transform="matrix(0.99, 0.00, -0.00, -0.99, 852.0, 478.0)"></image><g><clipPath id="clip-1100"><path d="M 30.0 708.0 L 762.0 708.0 L 762.0 109.0 L 30.0 109.0 Z M 29.7 707.7 "></path></clipPath><g clip-path="url(#clip-1100)"><image xlink:href="../../935D57B0-2C23-4D4C-A1E6-6C491F455D89/assets/2FED1194C0A9FFC2E1DF66174FE56C08.png" width="864.00" height="540.00" transform="matrix(1.43, 0.00, -0.00, -1.43, -106.0, 768.0)"></image></g></g></g></svg>