<?xml version="1.0" encoding="UTF-8" standalone="no"?><svg xmlns="http://www.w3.org/2000/svg" xmlns:xlink="http://www.w3.org/1999/xlink" clip-rule="evenodd" stroke-miterlimit="4.00" viewBox="0 0 1024 768"><desc>SVG generated by Keynote</desc><defs></defs><g transform="matrix(1.00, 0.00, -0.00, -1.00, 0.0, 768.0)"><path d="M 0.0 768.0 L 1024.0 768.0 L 1024.0 0.0 L 0.0 0.0 Z M 0.0 768.0 " fill="#000000"></path><path d="M 790.7 705.6 L 1023.7 705.6 L 1023.7 -0.7 L 790.7 -0.7 Z M 790.7 705.6 " fill="#FEFFFE"></path><image xlink:href="2BE2B2CF3CC0BC7C9042909806A1E4AC.png" width="786.00" height="576.00" transform="matrix(0.96, 0.00, -0.00, -1.04, 20.0, 710.0)"></image><text xml:space="preserve" font-family="Helvetica-Bold" font-weight="bold" font-size="30.0" fill="#FEFFFF" transform="matrix(1.00, 0.00, -0.00, -1.00, 841.0, 728.0)">É</text><text xml:space="preserve" font-family="Helvetica-Bold" font-weight="bold" font-size="30.0" fill="#FEFFFF" transform="matrix(1.00, 0.00, -0.00, -1.00, 861.0, 728.0)">l</text><text xml:space="preserve" font-family="Helvetica-Bold" font-weight="bold" font-size="30.0" fill="#FEFFFF" transform="matrix(1.00, 0.00, -0.00, -1.00, 869.3, 728.0)">é</text><text xml:space="preserve" font-family="Helvetica-Bold" font-weight="bold" font-size="30.0" fill="#FEFFFF" transform="matrix(1.00, 0.00, -0.00, -1.00, 886.0, 728.0)">m</text><text xml:space="preserve" font-family="Helvetica-Bold" font-weight="bold" font-size="30.0" fill="#FEFFFF" transform="matrix(1.00, 0.00, -0.00, -1.00, 912.7, 728.0)">e</text><text xml:space="preserve" font-family="Helvetica-Bold" font-weight="bold" font-size="30.0" fill="#FEFFFF" transform="matrix(1.00, 0.00, -0.00, -1.00, 929.4, 728.0)">n</text><text xml:space="preserve" font-family="Helvetica-Bold" font-weight="bold" font-size="30.0" fill="#FEFFFF" transform="matrix(1.00, 0.00, -0.00, -1.00, 947.7, 728.0)">t</text><text xml:space="preserve" font-family="Helvetica-Bold" font-weight="bold" font-size="30.0" fill="#FEFFFF" transform="matrix(1.00, 0.00, -0.00, -1.00, 957.7, 728.0)">s</text><image xlink:href="../../7D643FA7-9A1F-45A5-A30F-7828735F3C35/assets/B860128BC00D8306CA82832CEC78FFCC.png" width="781.00" height="33.00" transform="matrix(1.00, 0.00, -0.00, -1.03, 4.0, 103.0)"></image><text xml:space="preserve" font-family="Helvetica-Bold" font-weight="bold" font-size="13.0" fill="#961817" transform="matrix(1.00, 0.00, -0.00, -1.00, 260.0, 747.0)">2</text><text xml:space="preserve" font-family="Helvetica-Bold" font-weight="bold" font-size="13.0" fill="#961817" transform="matrix(1.00, 0.00, -0.00, -1.00, 267.2, 747.0)">e</text><text xml:space="preserve" font-family="Helvetica-Bold" font-weight="bold" font-size="13.0" fill="#961817" transform="matrix(1.00, 0.00, -0.00, -1.00, 274.5, 747.0)"> </text><text xml:space="preserve" font-family="Helvetica-Bold" font-weight="bold" font-size="13.0" fill="#961817" transform="matrix(1.00, 0.00, -0.00, -1.00, 278.1, 747.0)">t</text><text xml:space="preserve" font-family="Helvetica-Bold" font-weight="bold" font-size="13.0" fill="#961817" transform="matrix(1.00, 0.00, -0.00, -1.00, 282.4, 747.0)">e</text><text xml:space="preserve" font-family="Helvetica-Bold" font-weight="bold" font-size="13.0" fill="#961817" transform="matrix(1.00, 0.00, -0.00, -1.00, 289.6, 747.0)">m</text><text xml:space="preserve" font-family="Helvetica-Bold" font-weight="bold" font-size="13.0" fill="#961817" transform="matrix(1.00, 0.00, -0.00, -1.00, 301.2, 747.0)">p</text><text xml:space="preserve" font-family="Helvetica-Bold" font-weight="bold" font-size="13.0" fill="#961817" transform="matrix(1.00, 0.00, -0.00, -1.00, 309.1, 747.0)">s</text><text xml:space="preserve" font-family="Helvetica-Bold" font-weight="bold" font-size="13.0" fill="#961817" transform="matrix(1.00, 0.00, -0.00, -1.00, 316.4, 747.0)"> </text><text xml:space="preserve" font-family="Helvetica-Bold" font-weight="bold" font-size="13.0" fill="#961817" transform="matrix(1.00, 0.00, -0.00, -1.00, 320.0, 747.0)">:</text><text xml:space="preserve" font-family="Helvetica-Bold" font-weight="bold" font-size="13.0" fill="#961817" transform="matrix(1.00, 0.00, -0.00, -1.00, 324.3, 747.0)"> </text><text xml:space="preserve" font-family="Helvetica-Bold" font-weight="bold" font-size="13.0" fill="#961817" transform="matrix(1.00, 0.00, -0.00, -1.00, 327.9, 747.0)">i</text><text xml:space="preserve" font-family="Helvetica-Bold" font-weight="bold" font-size="13.0" fill="#961817" transform="matrix(1.00, 0.00, -0.00, -1.00, 331.5, 747.0)">d</text><text xml:space="preserve" font-family="Helvetica-Bold" font-weight="bold" font-size="13.0" fill="#961817" transform="matrix(1.00, 0.00, -0.00, -1.00, 339.5, 747.0)">e</text><text xml:space="preserve" font-family="Helvetica-Bold" font-weight="bold" font-size="13.0" fill="#961817" transform="matrix(1.00, 0.00, -0.00, -1.00, 346.7, 747.0)">n</text><text xml:space="preserve" font-family="Helvetica-Bold" font-weight="bold" font-size="13.0" fill="#961817" transform="matrix(1.00, 0.00, -0.00, -1.00, 354.6, 747.0)">t</text><text xml:space="preserve" font-family="Helvetica-Bold" font-weight="bold" font-size="13.0" fill="#961817" transform="matrix(1.00, 0.00, -0.00, -1.00, 359.0, 747.0)">i</text><text xml:space="preserve" font-family="Helvetica-Bold" font-weight="bold" font-size="13.0" fill="#961817" transform="matrix(1.00, 0.00, -0.00, -1.00, 362.6, 747.0)">ﬁ</text><text xml:space="preserve" font-family="Helvetica-Bold" font-weight="bold" font-size="13.0" fill="#961817" transform="matrix(1.00, 0.00, -0.00, -1.00, 370.5, 747.0)">c</text><text xml:space="preserve" font-family="Helvetica-Bold" font-weight="bold" font-size="13.0" fill="#961817" transform="matrix(1.00, 0.00, -0.00, -1.00, 377.7, 747.0)">a</text><text xml:space="preserve" font-family="Helvetica-Bold" font-weight="bold" font-size="13.0" fill="#961817" transform="matrix(1.00, 0.00, -0.00, -1.00, 385.0, 747.0)">t</text><text xml:space="preserve" font-family="Helvetica-Bold" font-weight="bold" font-size="13.0" fill="#961817" transform="matrix(1.00, 0.00, -0.00, -1.00, 389.3, 747.0)">i</text><text xml:space="preserve" font-family="Helvetica-Bold" font-weight="bold" font-size="13.0" fill="#961817" transform="matrix(1.00, 0.00, -0.00, -1.00, 392.9, 747.0)">o</text><text xml:space="preserve" font-family="Helvetica-Bold" font-weight="bold" font-size="13.0" fill="#961817" transform="matrix(1.00, 0.00, -0.00, -1.00, 400.9, 747.0)">n</text><text xml:space="preserve" font-family="Helvetica-Bold" font-weight="bold" font-size="13.0" fill="#961817" transform="matrix(1.00, 0.00, -0.00, -1.00, 408.8, 747.0)"> </text><text xml:space="preserve" font-family="Helvetica-Bold" font-weight="bold" font-size="13.0" fill="#961817" transform="matrix(1.00, 0.00, -0.00, -1.00, 412.4, 747.0)">d</text><text xml:space="preserve" font-family="Helvetica-Bold" font-weight="bold" font-size="13.0" fill="#961817" transform="matrix(1.00, 0.00, -0.00, -1.00, 420.3, 747.0)">e</text><text xml:space="preserve" font-family="Helvetica-Bold" font-weight="bold" font-size="13.0" fill="#961817" transform="matrix(1.00, 0.00, -0.00, -1.00, 427.6, 747.0)">s</text><text xml:space="preserve" font-family="Helvetica-Bold" font-weight="bold" font-size="13.0" fill="#961817" transform="matrix(1.00, 0.00, -0.00, -1.00, 434.8, 747.0)"> </text><text xml:space="preserve" font-family="Helvetica-Bold" font-weight="bold" font-size="13.0" fill="#961817" transform="matrix(1.00, 0.00, -0.00, -1.00, 438.4, 747.0)">é</text><text xml:space="preserve" font-family="Helvetica-Bold" font-weight="bold" font-size="13.0" fill="#961817" transform="matrix(1.00, 0.00, -0.00, -1.00, 445.6, 747.0)">l</text><text xml:space="preserve" font-family="Helvetica-Bold" font-weight="bold" font-size="13.0" fill="#961817" transform="matrix(1.00, 0.00, -0.00, -1.00, 449.3, 747.0)">é</text><text xml:space="preserve" font-family="Helvetica-Bold" font-weight="bold" font-size="13.0" fill="#961817" transform="matrix(1.00, 0.00, -0.00, -1.00, 456.5, 747.0)">m</text><text xml:space="preserve" font-family="Helvetica-Bold" font-weight="bold" font-size="13.0" fill="#961817" transform="matrix(1.00, 0.00, -0.00, -1.00, 468.0, 747.0)">e</text><text xml:space="preserve" font-family="Helvetica-Bold" font-weight="bold" font-size="13.0" fill="#961817" transform="matrix(1.00, 0.00, -0.00, -1.00, 475.3, 747.0)">n</text><text xml:space="preserve" font-family="Helvetica-Bold" font-weight="bold" font-size="13.0" fill="#961817" transform="matrix(1.00, 0.00, -0.00, -1.00, 483.2, 747.0)">t</text><text xml:space="preserve" font-family="Helvetica-Bold" font-weight="bold" font-size="13.0" fill="#961817" transform="matrix(1.00, 0.00, -0.00, -1.00, 487.5, 747.0)">s</text><path d="M 55.8 65.5 L 98.6 65.5 L 98.6 21.5 L 55.8 21.5 Z M 55.8 65.5 " fill="#FEFFFE"></path><path d="M 2.6 144.2 L 5.8 144.2 L 5.8 44.2 L 2.6 44.2 Z M 2.6 144.2 " fill="#000000"></path><path d="M 77.6 102.7 L 78.8 102.7 L 78.8 69.3 L 77.6 69.3 Z M 77.6 102.7 " fill="#961817"></path><image xlink:href="../../935D57B0-2C23-4D4C-A1E6-6C491F455D89/assets/1B1261F7244115A999F6E5420447D899.png" width="82.00" height="77.00" transform="matrix(0.52, 0.00, -0.00, -0.53, 56.0, 64.0)"></image><g><clipPath id="clip-1036"><path d="M 878.2 -28.2 L 1156.5 -28.2 L 1156.5 684.8 L 878.2 684.8 Z M 878.2 -28.2 "></path></clipPath><g clip-path="url(#clip-1036)"><text xml:space="preserve" font-family="Helvetica-Light" font-size="18.0" fill="#000000" transform="matrix(1.00, 0.00, -0.00, -1.00, 883.0, 662.0)">o</text><text xml:space="preserve" font-family="Helvetica-Light" font-size="18.0" fill="#000000" transform="matrix(1.00, 0.00, -0.00, -1.00, 893.0, 662.0)">m</text><text xml:space="preserve" font-family="Helvetica-Light" font-size="18.0" fill="#000000" transform="matrix(1.00, 0.00, -0.00, -1.00, 908.0, 662.0)">b</text><text xml:space="preserve" font-family="Helvetica-Light" font-size="18.0" fill="#000000" transform="matrix(1.00, 0.00, -0.00, -1.00, 919.0, 662.0)">r</text><text xml:space="preserve" font-family="Helvetica-Light" font-size="18.0" fill="#000000" transform="matrix(1.00, 0.00, -0.00, -1.00, 924.7, 662.0)">e</text><text xml:space="preserve" font-family="Helvetica-Light" font-size="18.0" fill="#000000" transform="matrix(1.00, 0.00, -0.00, -1.00, 934.7, 662.0)">l</text><text xml:space="preserve" font-family="Helvetica-Light" font-size="18.0" fill="#000000" transform="matrix(1.00, 0.00, -0.00, -1.00, 938.7, 662.0)">l</text><text xml:space="preserve" font-family="Helvetica-Light" font-size="18.0" fill="#000000" transform="matrix(1.00, 0.00, -0.00, -1.00, 942.7, 662.0)">e</text><text xml:space="preserve" font-family="Helvetica-Light" font-size="18.0" fill="#000000" transform="matrix(1.00, 0.00, -0.00, -1.00, 952.7, 662.0)"> </text><text xml:space="preserve" font-family="Helvetica-Light" font-size="18.0" fill="#000000" transform="matrix(1.00, 0.00, -0.00, -1.00, 883.0, 592.0)">c</text><text xml:space="preserve" font-family="Helvetica-Light" font-size="18.0" fill="#000000" transform="matrix(1.00, 0.00, -0.00, -1.00, 893.0, 592.0)">h</text><text xml:space="preserve" font-family="Helvetica-Light" font-size="18.0" fill="#000000" transform="matrix(1.00, 0.00, -0.00, -1.00, 903.0, 592.0)">a</text><text xml:space="preserve" font-family="Helvetica-Light" font-size="18.0" fill="#000000" transform="matrix(1.00, 0.00, -0.00, -1.00, 913.0, 592.0)">s</text><text xml:space="preserve" font-family="Helvetica-Light" font-size="18.0" fill="#000000" transform="matrix(1.00, 0.00, -0.00, -1.00, 922.0, 592.0)">s</text><text xml:space="preserve" font-family="Helvetica-Light" font-size="18.0" fill="#000000" transform="matrix(1.00, 0.00, -0.00, -1.00, 931.0, 592.0)">e</text><text xml:space="preserve" font-family="Helvetica-Light" font-size="18.0" fill="#000000" transform="matrix(1.00, 0.00, -0.00, -1.00, 941.0, 592.0)">-</text><text xml:space="preserve" font-family="Helvetica-Light" font-size="18.0" fill="#000000" transform="matrix(1.00, 0.00, -0.00, -1.00, 947.0, 592.0)">m</text><text xml:space="preserve" font-family="Helvetica-Light" font-size="18.0" fill="#000000" transform="matrix(1.00, 0.00, -0.00, -1.00, 962.0, 592.0)">o</text><text xml:space="preserve" font-family="Helvetica-Light" font-size="18.0" fill="#000000" transform="matrix(1.00, 0.00, -0.00, -1.00, 972.0, 592.0)">u</text><text xml:space="preserve" font-family="Helvetica-Light" font-size="18.0" fill="#000000" transform="matrix(1.00, 0.00, -0.00, -1.00, 982.0, 592.0)">c</text><text xml:space="preserve" font-family="Helvetica-Light" font-size="18.0" fill="#000000" transform="matrix(1.00, 0.00, -0.00, -1.00, 992.0, 592.0)">h</text><text xml:space="preserve" font-family="Helvetica-Light" font-size="18.0" fill="#000000" transform="matrix(1.00, 0.00, -0.00, -1.00, 1002.1, 592.0)">e</text><text xml:space="preserve" font-family="Helvetica-Light" font-size="18.0" fill="#000000" transform="matrix(1.00, 0.00, -0.00, -1.00, 1012.1, 592.0)"> </text><text xml:space="preserve" font-family="Helvetica-Light" font-size="18.0" fill="#000000" transform="matrix(1.00, 0.00, -0.00, -1.00, 883.0, 522.0)">t</text><text xml:space="preserve" font-family="Helvetica-Light" font-size="18.0" fill="#000000" transform="matrix(1.00, 0.00, -0.00, -1.00, 888.0, 522.0)">a</text><text xml:space="preserve" font-family="Helvetica-Light" font-size="18.0" fill="#000000" transform="matrix(1.00, 0.00, -0.00, -1.00, 898.0, 522.0)">m</text><text xml:space="preserve" font-family="Helvetica-Light" font-size="18.0" fill="#000000" transform="matrix(1.00, 0.00, -0.00, -1.00, 913.0, 522.0)">b</text><text xml:space="preserve" font-family="Helvetica-Light" font-size="18.0" fill="#000000" transform="matrix(1.00, 0.00, -0.00, -1.00, 924.0, 522.0)">o</text><text xml:space="preserve" font-family="Helvetica-Light" font-size="18.0" fill="#000000" transform="matrix(1.00, 0.00, -0.00, -1.00, 934.0, 522.0)">u</text><text xml:space="preserve" font-family="Helvetica-Light" font-size="18.0" fill="#000000" transform="matrix(1.00, 0.00, -0.00, -1.00, 944.0, 522.0)">r</text><text xml:space="preserve" font-family="Helvetica-Light" font-size="18.0" fill="#000000" transform="matrix(1.00, 0.00, -0.00, -1.00, 950.0, 522.0)"> </text><text xml:space="preserve" font-family="Helvetica-Light" font-size="18.0" fill="#000000" transform="matrix(1.00, 0.00, -0.00, -1.00, 883.0, 451.0)">é</text><text xml:space="preserve" font-family="Helvetica-Light" font-size="18.0" fill="#000000" transform="matrix(1.00, 0.00, -0.00, -1.00, 893.0, 451.0)">v</text><text xml:space="preserve" font-family="Helvetica-Light" font-size="18.0" fill="#000000" transform="matrix(1.00, 0.00, -0.00, -1.00, 902.0, 451.0)">e</text><text xml:space="preserve" font-family="Helvetica-Light" font-size="18.0" fill="#000000" transform="matrix(1.00, 0.00, -0.00, -1.00, 912.0, 451.0)">n</text><text xml:space="preserve" font-family="Helvetica-Light" font-size="18.0" fill="#000000" transform="matrix(1.00, 0.00, -0.00, -1.00, 922.0, 451.0)">t</text><text xml:space="preserve" font-family="Helvetica-Light" font-size="18.0" fill="#000000" transform="matrix(1.00, 0.00, -0.00, -1.00, 927.0, 451.0)">a</text><text xml:space="preserve" font-family="Helvetica-Light" font-size="18.0" fill="#000000" transform="matrix(1.00, 0.00, -0.00, -1.00, 937.0, 451.0)">i</text><text xml:space="preserve" font-family="Helvetica-Light" font-size="18.0" fill="#000000" transform="matrix(1.00, 0.00, -0.00, -1.00, 941.0, 451.0)">l</text><text xml:space="preserve" font-family="Helvetica-Light" font-size="18.0" fill="#000000" transform="matrix(1.00, 0.00, -0.00, -1.00, 945.0, 451.0)"> </text><text xml:space="preserve" font-family="Helvetica-Light" font-size="18.0" fill="#000000" transform="matrix(1.00, 0.00, -0.00, -1.00, 883.0, 381.0)">c</text><text xml:space="preserve" font-family="Helvetica-Light" font-size="18.0" fill="#000000" transform="matrix(1.00, 0.00, -0.00, -1.00, 893.0, 381.0)">a</text><text xml:space="preserve" font-family="Helvetica-Light" font-size="18.0" fill="#000000" transform="matrix(1.00, 0.00, -0.00, -1.00, 903.0, 381.0)">s</text><text xml:space="preserve" font-family="Helvetica-Light" font-size="18.0" fill="#000000" transform="matrix(1.00, 0.00, -0.00, -1.00, 912.0, 381.0)">q</text><text xml:space="preserve" font-family="Helvetica-Light" font-size="18.0" fill="#000000" transform="matrix(1.00, 0.00, -0.00, -1.00, 923.0, 381.0)">u</text><text xml:space="preserve" font-family="Helvetica-Light" font-size="18.0" fill="#000000" transform="matrix(1.00, 0.00, -0.00, -1.00, 933.0, 381.0)">e</text><text xml:space="preserve" font-family="Helvetica-Light" font-size="18.0" fill="#000000" transform="matrix(1.00, 0.00, -0.00, -1.00, 943.0, 381.0)"> </text><text xml:space="preserve" font-family="Helvetica-Light" font-size="18.0" fill="#000000" transform="matrix(1.00, 0.00, -0.00, -1.00, 948.0, 381.0)">c</text><text xml:space="preserve" font-family="Helvetica-Light" font-size="18.0" fill="#000000" transform="matrix(1.00, 0.00, -0.00, -1.00, 958.0, 381.0)">o</text><text xml:space="preserve" font-family="Helvetica-Light" font-size="18.0" fill="#000000" transform="matrix(1.00, 0.00, -0.00, -1.00, 968.0, 381.0)">l</text><text xml:space="preserve" font-family="Helvetica-Light" font-size="18.0" fill="#000000" transform="matrix(1.00, 0.00, -0.00, -1.00, 972.0, 381.0)">o</text><text xml:space="preserve" font-family="Helvetica-Light" font-size="18.0" fill="#000000" transform="matrix(1.00, 0.00, -0.00, -1.00, 982.1, 381.0)">n</text><text xml:space="preserve" font-family="Helvetica-Light" font-size="18.0" fill="#000000" transform="matrix(1.00, 0.00, -0.00, -1.00, 992.1, 381.0)">i</text><text xml:space="preserve" font-family="Helvetica-Light" font-size="18.0" fill="#000000" transform="matrix(1.00, 0.00, -0.00, -1.00, 996.1, 381.0)">a</text><text xml:space="preserve" font-family="Helvetica-Light" font-size="18.0" fill="#000000" transform="matrix(1.00, 0.00, -0.00, -1.00, 1006.1, 381.0)">l</text><text xml:space="preserve" font-family="Helvetica-Light" font-size="18.0" fill="#000000" transform="matrix(1.00, 0.00, -0.00, -1.00, 1010.1, 381.0)"> </text><text xml:space="preserve" font-family="Helvetica-Light" font-size="18.0" fill="#000000" transform="matrix(1.00, 0.00, -0.00, -1.00, 883.0, 310.0)">d</text><text xml:space="preserve" font-family="Helvetica-Light" font-size="18.0" fill="#000000" transform="matrix(1.00, 0.00, -0.00, -1.00, 894.0, 310.0)">a</text><text xml:space="preserve" font-family="Helvetica-Light" font-size="18.0" fill="#000000" transform="matrix(1.00, 0.00, -0.00, -1.00, 904.0, 310.0)">n</text><text xml:space="preserve" font-family="Helvetica-Light" font-size="18.0" fill="#000000" transform="matrix(1.00, 0.00, -0.00, -1.00, 914.0, 310.0)">s</text><text xml:space="preserve" font-family="Helvetica-Light" font-size="18.0" fill="#000000" transform="matrix(1.00, 0.00, -0.00, -1.00, 923.0, 310.0)">e</text><text xml:space="preserve" font-family="Helvetica-Light" font-size="18.0" fill="#000000" transform="matrix(1.00, 0.00, -0.00, -1.00, 933.0, 310.0)"> </text><text xml:space="preserve" font-family="Helvetica-Light" font-size="18.0" fill="#000000" transform="matrix(1.00, 0.00, -0.00, -1.00, 883.0, 240.0)">à</text><text xml:space="preserve" font-family="Helvetica-Light" font-size="18.0" fill="#000000" transform="matrix(1.00, 0.00, -0.00, -1.00, 893.0, 240.0)"> </text><text xml:space="preserve" font-family="Helvetica-Light" font-size="18.0" fill="#000000" transform="matrix(1.00, 0.00, -0.00, -1.00, 898.0, 240.0)">g</text><text xml:space="preserve" font-family="Helvetica-Light" font-size="18.0" fill="#000000" transform="matrix(1.00, 0.00, -0.00, -1.00, 909.0, 240.0)">e</text><text xml:space="preserve" font-family="Helvetica-Light" font-size="18.0" fill="#000000" transform="matrix(1.00, 0.00, -0.00, -1.00, 919.0, 240.0)">n</text><text xml:space="preserve" font-family="Helvetica-Light" font-size="18.0" fill="#000000" transform="matrix(1.00, 0.00, -0.00, -1.00, 929.0, 240.0)">o</text><text xml:space="preserve" font-family="Helvetica-Light" font-size="18.0" fill="#000000" transform="matrix(1.00, 0.00, -0.00, -1.00, 939.0, 240.0)">u</text><text xml:space="preserve" font-family="Helvetica-Light" font-size="18.0" fill="#000000" transform="matrix(1.00, 0.00, -0.00, -1.00, 949.0, 240.0)">x</text><text xml:space="preserve" font-family="Helvetica-Light" font-size="18.0" fill="#000000" transform="matrix(1.00, 0.00, -0.00, -1.00, 958.0, 240.0)"> </text><text xml:space="preserve" font-family="Helvetica-Light" font-size="18.0" fill="#000000" transform="matrix(1.00, 0.00, -0.00, -1.00, 883.0, 170.0)">r</text><text xml:space="preserve" font-family="Helvetica-Light" font-size="18.0" fill="#000000" transform="matrix(1.00, 0.00, -0.00, -1.00, 888.7, 170.0)">e</text><text xml:space="preserve" font-family="Helvetica-Light" font-size="18.0" fill="#000000" transform="matrix(1.00, 0.00, -0.00, -1.00, 898.7, 170.0)">g</text><text xml:space="preserve" font-family="Helvetica-Light" font-size="18.0" fill="#000000" transform="matrix(1.00, 0.00, -0.00, -1.00, 909.7, 170.0)">a</text><text xml:space="preserve" font-family="Helvetica-Light" font-size="18.0" fill="#000000" transform="matrix(1.00, 0.00, -0.00, -1.00, 919.7, 170.0)">r</text><text xml:space="preserve" font-family="Helvetica-Light" font-size="18.0" fill="#000000" transform="matrix(1.00, 0.00, -0.00, -1.00, 925.4, 170.0)">d</text><text xml:space="preserve" font-family="Helvetica-Light" font-size="18.0" fill="#000000" transform="matrix(1.00, 0.00, -0.00, -1.00, 936.4, 170.0)"> </text><text xml:space="preserve" font-family="Helvetica-Light" font-size="18.0" fill="#000000" transform="matrix(1.00, 0.00, -0.00, -1.00, 941.4, 170.0)">c</text><text xml:space="preserve" font-family="Helvetica-Light" font-size="18.0" fill="#000000" transform="matrix(1.00, 0.00, -0.00, -1.00, 951.4, 170.0)">a</text><text xml:space="preserve" font-family="Helvetica-Light" font-size="18.0" fill="#000000" transform="matrix(1.00, 0.00, -0.00, -1.00, 961.4, 170.0)">m</text><text xml:space="preserve" font-family="Helvetica-Light" font-size="18.0" fill="#000000" transform="matrix(1.00, 0.00, -0.00, -1.00, 976.4, 170.0)">é</text><text xml:space="preserve" font-family="Helvetica-Light" font-size="18.0" fill="#000000" transform="matrix(1.00, 0.00, -0.00, -1.00, 986.4, 170.0)">r</text><text xml:space="preserve" font-family="Helvetica-Light" font-size="18.0" fill="#000000" transform="matrix(1.00, 0.00, -0.00, -1.00, 992.4, 170.0)">a</text><text xml:space="preserve" font-family="Helvetica-Light" font-size="18.0" fill="#000000" transform="matrix(1.00, 0.00, -0.00, -1.00, 1002.4, 170.0)"> </text><text xml:space="preserve" font-family="Helvetica-Light" font-size="18.0" fill="#000000" transform="matrix(1.00, 0.00, -0.00, -1.00, 883.0, 99.0)">r</text><text xml:space="preserve" font-family="Helvetica-Light" font-size="18.0" fill="#000000" transform="matrix(1.00, 0.00, -0.00, -1.00, 888.7, 99.0)">o</text><text xml:space="preserve" font-family="Helvetica-Light" font-size="18.0" fill="#000000" transform="matrix(1.00, 0.00, -0.00, -1.00, 898.7, 99.0)">i</text><text xml:space="preserve" font-family="Helvetica-Light" font-size="18.0" fill="#000000" transform="matrix(1.00, 0.00, -0.00, -1.00, 902.7, 99.0)"> </text><text xml:space="preserve" font-family="Helvetica-Light" font-size="18.0" fill="#000000" transform="matrix(1.00, 0.00, -0.00, -1.00, 907.7, 99.0)">T</text><text xml:space="preserve" font-family="Helvetica-Light" font-size="18.0" fill="#000000" transform="matrix(1.00, 0.00, -0.00, -1.00, 915.7, 99.0)">a</text><text xml:space="preserve" font-family="Helvetica-Light" font-size="18.0" fill="#000000" transform="matrix(1.00, 0.00, -0.00, -1.00, 925.7, 99.0)">k</text><text xml:space="preserve" font-family="Helvetica-Light" font-size="18.0" fill="#000000" transform="matrix(1.00, 0.00, -0.00, -1.00, 934.7, 99.0)">o</text><text xml:space="preserve" font-family="Helvetica-Light" font-size="18.0" fill="#000000" transform="matrix(1.00, 0.00, -0.00, -1.00, 944.7, 99.0)">n</text><text xml:space="preserve" font-family="Helvetica-Light" font-size="18.0" fill="#000000" transform="matrix(1.00, 0.00, -0.00, -1.00, 954.7, 99.0)"> </text><text xml:space="preserve" font-family="Helvetica-Light" font-size="18.0" fill="#000000" transform="matrix(1.00, 0.00, -0.00, -1.00, 883.0, 29.0)">A</text><text xml:space="preserve" font-family="Helvetica-Light" font-size="18.0" fill="#000000" transform="matrix(1.00, 0.00, -0.00, -1.00, 895.0, 29.0)">u</text><text xml:space="preserve" font-family="Helvetica-Light" font-size="18.0" fill="#000000" transform="matrix(1.00, 0.00, -0.00, -1.00, 905.0, 29.0)">p</text><text xml:space="preserve" font-family="Helvetica-Light" font-size="18.0" fill="#000000" transform="matrix(1.00, 0.00, -0.00, -1.00, 916.0, 29.0)">i</text><text xml:space="preserve" font-family="Helvetica-Light" font-size="18.0" fill="#000000" transform="matrix(1.00, 0.00, -0.00, -1.00, 920.0, 29.0)">a</text><text xml:space="preserve" font-family="Helvetica-Light" font-size="18.0" fill="#000000" transform="matrix(1.00, 0.00, -0.00, -1.00, 930.0, 29.0)">i</text><text xml:space="preserve" font-family="Helvetica-Light" font-size="18.0" fill="#000000" transform="matrix(1.00, 0.00, -0.00, -1.00, 934.0, 29.0)">s</text></g></g><g><clipPath id="clip-1037"><path d="M 804.7 87.2 L 859.1 87.2 L 859.1 149.2 L 804.7 149.2 Z M 804.7 87.2 "></path></clipPath><g clip-path="url(#clip-1037)"><image xlink:href="../../935D57B0-2C23-4D4C-A1E6-6C491F455D89/assets/7E502CAA4FFA9D974AD015CF2838958C.png" width="54.00" height="62.00" transform="matrix(1.00, 0.00, -0.00, -1.00, 805.0, 149.0)"></image></g></g><g><clipPath id="clip-1038"><path d="M 816.0 77.0 L 859.0 77.0 L 859.0 4.0 L 816.0 4.0 Z M 816.4 77.4 "></path></clipPath><g clip-path="url(#clip-1038)"><g><clipPath id="clip-1039"><path d="M 816.4 4.2 L 859.1 4.2 L 859.1 77.4 L 816.4 77.4 Z M 816.4 4.2 "></path></clipPath><g clip-path="url(#clip-1039)"><image xlink:href="../../935D57B0-2C23-4D4C-A1E6-6C491F455D89/assets/C305B6B285F82A1886E44483754CE173.png" width="52.00" height="104.00" transform="matrix(1.00, 0.00, -0.00, -0.99, 816.0, 77.0)"></image></g></g></g></g><g><clipPath id="clip-1040"><path d="M 809.9 162.0 L 865.6 162.0 L 865.6 190.4 L 809.9 190.4 Z M 809.9 162.0 "></path></clipPath><g clip-path="url(#clip-1040)"><image xlink:href="../../935D57B0-2C23-4D4C-A1E6-6C491F455D89/assets/522543E11333F6092368D8F550CF40A1.png" width="56.00" height="28.00" transform="matrix(1.00, 0.00, -0.00, -1.00, 810.0, 190.0)"></image></g></g><g><clipPath id="clip-1041"><path d="M 804.7 223.8 L 859.1 223.8 L 859.1 265.1 L 804.7 265.1 Z M 804.7 223.8 "></path></clipPath><g clip-path="url(#clip-1041)"><image xlink:href="../../935D57B0-2C23-4D4C-A1E6-6C491F455D89/assets/BBA681100BBCDBAC699DB5E1BEF579AB.png" width="55.00" height="41.00" transform="matrix(0.98, 0.00, -0.00, -1.00, 805.0, 265.0)"></image></g></g><g><clipPath id="clip-1042"><path d="M 802.6 487.3 L 848.1 503.7 L 874.2 431.3 L 828.8 414.9 Z M 802.6 487.3 "></path></clipPath><g clip-path="url(#clip-1042)"><image xlink:href="../../935D57B0-2C23-4D4C-A1E6-6C491F455D89/assets/FC74B7BE5327E3481314715D712861FD.png" width="48.00" height="77.00" transform="matrix(0.95, 0.34, 0.34, -0.94, 802.6, 487.3)"></image></g></g><g><clipPath id="clip-1043"><path d="M 810.9 365.5 L 878.8 365.5 L 878.8 410.6 L 810.9 410.6 Z M 810.9 365.5 "></path></clipPath><g clip-path="url(#clip-1043)"><image xlink:href="../../935D57B0-2C23-4D4C-A1E6-6C491F455D89/assets/C94BFD0455CE9904E99A523A7C9C5973.png" width="68.00" height="45.00" transform="matrix(1.00, 0.00, -0.00, -1.00, 811.0, 411.0)"></image></g></g><g><clipPath id="clip-1044"><path d="M 867.5 615.7 L 871.5 608.0 L 808.1 574.8 L 804.0 582.5 Z M 867.5 615.7 "></path></clipPath><g clip-path="url(#clip-1044)"><image xlink:href="../../935D57B0-2C23-4D4C-A1E6-6C491F455D89/assets/CE3E4DFBACCBF921E4881DE9B73FCC4E.png" width="8.00" height="72.00" transform="matrix(0.51, -0.97, -0.88, -0.46, 867.5, 615.7)"></image></g></g><g><clipPath id="clip-1045"><path d="M 816.4 285.6 L 859.1 285.6 L 859.1 356.0 L 816.4 356.0 Z M 816.4 285.6 "></path></clipPath><g clip-path="url(#clip-1045)"><image xlink:href="../../935D57B0-2C23-4D4C-A1E6-6C491F455D89/assets/22CDCB2802D081FFC80869BED63E51CD.png" width="43.00" height="71.00" transform="matrix(1.00, 0.00, -0.00, -0.99, 816.0, 356.0)"></image></g></g><g><clipPath id="clip-1046"><path d="M 797.3 626.7 L 878.3 626.7 L 878.3 702.7 L 797.3 702.7 Z M 797.3 626.7 "></path></clipPath><g clip-path="url(#clip-1046)"><image xlink:href="../../935D57B0-2C23-4D4C-A1E6-6C491F455D89/assets/1B1261F7244115A999F6E5420447D899.png" width="82.00" height="77.00" transform="matrix(0.99, 0.00, -0.00, -0.99, 797.0, 703.0)"></image></g></g><g><clipPath id="clip-1047"><path d="M 825.2 505.0 L 850.3 505.0 L 850.3 567.0 L 825.2 567.0 Z M 825.2 505.0 "></path></clipPath><g clip-path="url(#clip-1047)"><image xlink:href="../../935D57B0-2C23-4D4C-A1E6-6C491F455D89/assets/7A714A74FD8EF77014C7DCA3DD8F0953.png" width="25.00" height="62.00" transform="matrix(1.00, 0.00, -0.00, -1.00, 825.0, 567.0)"></image></g></g><path d="M 140.1 641.8 L 737.0 641.8 L 737.0 235.0 L 140.1 235.0 Z M 140.1 641.8 " fill="#961817"></path><image xlink:href="../../25641795-2D3F-4ADE-9005-258B85A07E6D/assets/FED9B453016A3A47F4F049EE96E6471B.png" width="321.00" height="321.00" transform="matrix(1.00, 0.00, -0.00, -1.00, 278.0, 599.0)"></image><text xml:space="preserve" font-family="Helvetica-Bold" font-weight="bold" font-size="13.0" fill="#FEFFFF" transform="matrix(1.00, 0.00, -0.00, -1.00, 275.0, 262.0)">R</text><text xml:space="preserve" font-family="Helvetica-Bold" font-weight="bold" font-size="13.0" fill="#FEFFFF" transform="matrix(1.00, 0.00, -0.00, -1.00, 284.4, 262.0)">é</text><text xml:space="preserve" font-family="Helvetica-Bold" font-weight="bold" font-size="13.0" fill="#FEFFFF" transform="matrix(1.00, 0.00, -0.00, -1.00, 291.6, 262.0)">p</text><text xml:space="preserve" font-family="Helvetica-Bold" font-weight="bold" font-size="13.0" fill="#FEFFFF" transform="matrix(1.00, 0.00, -0.00, -1.00, 299.6, 262.0)">é</text><text xml:space="preserve" font-family="Helvetica-Bold" font-weight="bold" font-size="13.0" fill="#FEFFFF" transform="matrix(1.00, 0.00, -0.00, -1.00, 306.8, 262.0)">t</text><text xml:space="preserve" font-family="Helvetica-Bold" font-weight="bold" font-size="13.0" fill="#FEFFFF" transform="matrix(1.00, 0.00, -0.00, -1.00, 311.1, 262.0)">i</text><text xml:space="preserve" font-family="Helvetica-Bold" font-weight="bold" font-size="13.0" fill="#FEFFFF" transform="matrix(1.00, 0.00, -0.00, -1.00, 314.7, 262.0)">t</text><text xml:space="preserve" font-family="Helvetica-Bold" font-weight="bold" font-size="13.0" fill="#FEFFFF" transform="matrix(1.00, 0.00, -0.00, -1.00, 319.1, 262.0)">i</text><text xml:space="preserve" font-family="Helvetica-Bold" font-weight="bold" font-size="13.0" fill="#FEFFFF" transform="matrix(1.00, 0.00, -0.00, -1.00, 322.7, 262.0)">o</text><text xml:space="preserve" font-family="Helvetica-Bold" font-weight="bold" font-size="13.0" fill="#FEFFFF" transform="matrix(1.00, 0.00, -0.00, -1.00, 330.6, 262.0)">n</text><text xml:space="preserve" font-family="Helvetica-Bold" font-weight="bold" font-size="13.0" fill="#FEFFFF" transform="matrix(1.00, 0.00, -0.00, -1.00, 338.5, 262.0)"> </text><text xml:space="preserve" font-family="Helvetica-Bold" font-weight="bold" font-size="13.0" fill="#FEFFFF" transform="matrix(1.00, 0.00, -0.00, -1.00, 342.2, 262.0)">d</text><text xml:space="preserve" font-family="Helvetica-Bold" font-weight="bold" font-size="13.0" fill="#FEFFFF" transform="matrix(1.00, 0.00, -0.00, -1.00, 350.1, 262.0)">e</text><text xml:space="preserve" font-family="Helvetica-Bold" font-weight="bold" font-size="13.0" fill="#FEFFFF" transform="matrix(1.00, 0.00, -0.00, -1.00, 357.3, 262.0)"> </text><text xml:space="preserve" font-family="Helvetica-Bold" font-weight="bold" font-size="13.0" fill="#FEFFFF" transform="matrix(1.00, 0.00, -0.00, -1.00, 360.9, 262.0)">l</text><text xml:space="preserve" font-family="Helvetica-Bold" font-weight="bold" font-size="13.0" fill="#FEFFFF" transform="matrix(1.00, 0.00, -0.00, -1.00, 364.5, 262.0)">’</text><text xml:space="preserve" font-family="Helvetica-Bold" font-weight="bold" font-size="13.0" fill="#FEFFFF" transform="matrix(1.00, 0.00, -0.00, -1.00, 368.2, 262.0)">i</text><text xml:space="preserve" font-family="Helvetica-Bold" font-weight="bold" font-size="13.0" fill="#FEFFFF" transform="matrix(1.00, 0.00, -0.00, -1.00, 371.8, 262.0)">d</text><text xml:space="preserve" font-family="Helvetica-Bold" font-weight="bold" font-size="13.0" fill="#FEFFFF" transform="matrix(1.00, 0.00, -0.00, -1.00, 379.7, 262.0)">e</text><text xml:space="preserve" font-family="Helvetica-Bold" font-weight="bold" font-size="13.0" fill="#FEFFFF" transform="matrix(1.00, 0.00, -0.00, -1.00, 386.9, 262.0)">n</text><text xml:space="preserve" font-family="Helvetica-Bold" font-weight="bold" font-size="13.0" fill="#FEFFFF" transform="matrix(1.00, 0.00, -0.00, -1.00, 394.9, 262.0)">t</text><text xml:space="preserve" font-family="Helvetica-Bold" font-weight="bold" font-size="13.0" fill="#FEFFFF" transform="matrix(1.00, 0.00, -0.00, -1.00, 399.2, 262.0)">i</text><text xml:space="preserve" font-family="Helvetica-Bold" font-weight="bold" font-size="13.0" fill="#FEFFFF" transform="matrix(1.00, 0.00, -0.00, -1.00, 402.8, 262.0)">ﬁ</text><text xml:space="preserve" font-family="Helvetica-Bold" font-weight="bold" font-size="13.0" fill="#FEFFFF" transform="matrix(1.00, 0.00, -0.00, -1.00, 410.8, 262.0)">c</text><text xml:space="preserve" font-family="Helvetica-Bold" font-weight="bold" font-size="13.0" fill="#FEFFFF" transform="matrix(1.00, 0.00, -0.00, -1.00, 418.0, 262.0)">a</text><text xml:space="preserve" font-family="Helvetica-Bold" font-weight="bold" font-size="13.0" fill="#FEFFFF" transform="matrix(1.00, 0.00, -0.00, -1.00, 425.2, 262.0)">t</text><text xml:space="preserve" font-family="Helvetica-Bold" font-weight="bold" font-size="13.0" fill="#FEFFFF" transform="matrix(1.00, 0.00, -0.00, -1.00, 429.5, 262.0)">i</text><text xml:space="preserve" font-family="Helvetica-Bold" font-weight="bold" font-size="13.0" fill="#FEFFFF" transform="matrix(1.00, 0.00, -0.00, -1.00, 433.2, 262.0)">o</text><text xml:space="preserve" font-family="Helvetica-Bold" font-weight="bold" font-size="13.0" fill="#FEFFFF" transform="matrix(1.00, 0.00, -0.00, -1.00, 441.1, 262.0)">n</text><text xml:space="preserve" font-family="Helvetica-Bold" font-weight="bold" font-size="13.0" fill="#FEFFFF" transform="matrix(1.00, 0.00, -0.00, -1.00, 449.0, 262.0)"> </text><text xml:space="preserve" font-family="Helvetica-Bold" font-weight="bold" font-size="13.0" fill="#FEFFFF" transform="matrix(1.00, 0.00, -0.00, -1.00, 452.6, 262.0)">d</text><text xml:space="preserve" font-family="Helvetica-Bold" font-weight="bold" font-size="13.0" fill="#FEFFFF" transform="matrix(1.00, 0.00, -0.00, -1.00, 460.6, 262.0)">’</text><text xml:space="preserve" font-family="Helvetica-Bold" font-weight="bold" font-size="13.0" fill="#FEFFFF" transform="matrix(1.00, 0.00, -0.00, -1.00, 464.2, 262.0)">é</text><text xml:space="preserve" font-family="Helvetica-Bold" font-weight="bold" font-size="13.0" fill="#FEFFFF" transform="matrix(1.00, 0.00, -0.00, -1.00, 471.4, 262.0)">l</text><text xml:space="preserve" font-family="Helvetica-Bold" font-weight="bold" font-size="13.0" fill="#FEFFFF" transform="matrix(1.00, 0.00, -0.00, -1.00, 475.0, 262.0)">é</text><text xml:space="preserve" font-family="Helvetica-Bold" font-weight="bold" font-size="13.0" fill="#FEFFFF" transform="matrix(1.00, 0.00, -0.00, -1.00, 482.3, 262.0)">m</text><text xml:space="preserve" font-family="Helvetica-Bold" font-weight="bold" font-size="13.0" fill="#FEFFFF" transform="matrix(1.00, 0.00, -0.00, -1.00, 493.8, 262.0)">e</text><text xml:space="preserve" font-family="Helvetica-Bold" font-weight="bold" font-size="13.0" fill="#FEFFFF" transform="matrix(1.00, 0.00, -0.00, -1.00, 501.1, 262.0)">n</text><text xml:space="preserve" font-family="Helvetica-Bold" font-weight="bold" font-size="13.0" fill="#FEFFFF" transform="matrix(1.00, 0.00, -0.00, -1.00, 509.0, 262.0)">t</text><text xml:space="preserve" font-family="Helvetica-Bold" font-weight="bold" font-size="13.0" fill="#FEFFFF" transform="matrix(1.00, 0.00, -0.00, -1.00, 513.3, 262.0)">s</text><text xml:space="preserve" font-family="Helvetica-Bold" font-weight="bold" font-size="13.0" fill="#FEFFFF" transform="matrix(1.00, 0.00, -0.00, -1.00, 520.6, 262.0)"> </text><text xml:space="preserve" font-family="Helvetica-Bold" font-weight="bold" font-size="13.0" fill="#FEFFFF" transform="matrix(1.00, 0.00, -0.00, -1.00, 524.2, 262.0)">(</text><text xml:space="preserve" font-family="Helvetica-Bold" font-weight="bold" font-size="13.0" fill="#FEFFFF" transform="matrix(1.00, 0.00, -0.00, -1.00, 528.5, 262.0)">2</text><text xml:space="preserve" font-family="Helvetica-Bold" font-weight="bold" font-size="13.0" fill="#FEFFFF" transform="matrix(1.00, 0.00, -0.00, -1.00, 535.7, 262.0)">e</text><text xml:space="preserve" font-family="Helvetica-Bold" font-weight="bold" font-size="13.0" fill="#FEFFFF" transform="matrix(1.00, 0.00, -0.00, -1.00, 543.0, 262.0)"> </text><text xml:space="preserve" font-family="Helvetica-Bold" font-weight="bold" font-size="13.0" fill="#FEFFFF" transform="matrix(1.00, 0.00, -0.00, -1.00, 546.6, 262.0)">m</text><text xml:space="preserve" font-family="Helvetica-Bold" font-weight="bold" font-size="13.0" fill="#FEFFFF" transform="matrix(1.00, 0.00, -0.00, -1.00, 558.1, 262.0)">o</text><text xml:space="preserve" font-family="Helvetica-Bold" font-weight="bold" font-size="13.0" fill="#FEFFFF" transform="matrix(1.00, 0.00, -0.00, -1.00, 566.1, 262.0)">m</text><text xml:space="preserve" font-family="Helvetica-Bold" font-weight="bold" font-size="13.0" fill="#FEFFFF" transform="matrix(1.00, 0.00, -0.00, -1.00, 577.6, 262.0)">e</text><text xml:space="preserve" font-family="Helvetica-Bold" font-weight="bold" font-size="13.0" fill="#FEFFFF" transform="matrix(1.00, 0.00, -0.00, -1.00, 584.9, 262.0)">n</text><text xml:space="preserve" font-family="Helvetica-Bold" font-weight="bold" font-size="13.0" fill="#FEFFFF" transform="matrix(1.00, 0.00, -0.00, -1.00, 592.8, 262.0)">t</text><text xml:space="preserve" font-family="Helvetica-Bold" font-weight="bold" font-size="13.0" fill="#FEFFFF" transform="matrix(1.00, 0.00, -0.00, -1.00, 597.1, 262.0)">)</text><image xlink:href="../../FADA1663-4DB2-4A4B-A51E-E3E00CDA0533/assets/1BFD6494ECD89F54712199058A78AC96.png" width="134.00" height="134.00" transform="matrix(0.99, 0.00, -0.00, -0.99, 339.0, 419.0)"></image></g></svg>