<?xml version="1.0" encoding="UTF-8" standalone="no"?><svg xmlns="http://www.w3.org/2000/svg" xmlns:xlink="http://www.w3.org/1999/xlink" clip-rule="evenodd" stroke-miterlimit="4.00" viewBox="0 0 329 16"><desc>SVG generated by Keynote</desc><defs></defs><g transform="matrix(1.00, 0.00, -0.00, -1.00, 0.0, 16.0)"><text xml:space="preserve" font-family="Helvetica-Bold" font-weight="bold" font-size="13.0" fill="#FEFFFF" transform="matrix(1.00, 0.00, -0.00, -1.00, 1.0, 4.0)">R</text><text xml:space="preserve" font-family="Helvetica-Bold" font-weight="bold" font-size="13.0" fill="#FEFFFF" transform="matrix(1.00, 0.00, -0.00, -1.00, 10.4, 4.0)">é</text><text xml:space="preserve" font-family="Helvetica-Bold" font-weight="bold" font-size="13.0" fill="#FEFFFF" transform="matrix(1.00, 0.00, -0.00, -1.00, 17.6, 4.0)">p</text><text xml:space="preserve" font-family="Helvetica-Bold" font-weight="bold" font-size="13.0" fill="#FEFFFF" transform="matrix(1.00, 0.00, -0.00, -1.00, 25.6, 4.0)">é</text><text xml:space="preserve" font-family="Helvetica-Bold" font-weight="bold" font-size="13.0" fill="#FEFFFF" transform="matrix(1.00, 0.00, -0.00, -1.00, 32.8, 4.0)">t</text><text xml:space="preserve" font-family="Helvetica-Bold" font-weight="bold" font-size="13.0" fill="#FEFFFF" transform="matrix(1.00, 0.00, -0.00, -1.00, 37.1, 4.0)">i</text><text xml:space="preserve" font-family="Helvetica-Bold" font-weight="bold" font-size="13.0" fill="#FEFFFF" transform="matrix(1.00, 0.00, -0.00, -1.00, 40.7, 4.0)">t</text><text xml:space="preserve" font-family="Helvetica-Bold" font-weight="bold" font-size="13.0" fill="#FEFFFF" transform="matrix(1.00, 0.00, -0.00, -1.00, 45.1, 4.0)">i</text><text xml:space="preserve" font-family="Helvetica-Bold" font-weight="bold" font-size="13.0" fill="#FEFFFF" transform="matrix(1.00, 0.00, -0.00, -1.00, 48.7, 4.0)">o</text><text xml:space="preserve" font-family="Helvetica-Bold" font-weight="bold" font-size="13.0" fill="#FEFFFF" transform="matrix(1.00, 0.00, -0.00, -1.00, 56.6, 4.0)">n</text><text xml:space="preserve" font-family="Helvetica-Bold" font-weight="bold" font-size="13.0" fill="#FEFFFF" transform="matrix(1.00, 0.00, -0.00, -1.00, 64.5, 4.0)"> </text><text xml:space="preserve" font-family="Helvetica-Bold" font-weight="bold" font-size="13.0" fill="#FEFFFF" transform="matrix(1.00, 0.00, -0.00, -1.00, 68.2, 4.0)">d</text><text xml:space="preserve" font-family="Helvetica-Bold" font-weight="bold" font-size="13.0" fill="#FEFFFF" transform="matrix(1.00, 0.00, -0.00, -1.00, 76.1, 4.0)">e</text><text xml:space="preserve" font-family="Helvetica-Bold" font-weight="bold" font-size="13.0" fill="#FEFFFF" transform="matrix(1.00, 0.00, -0.00, -1.00, 83.3, 4.0)"> </text><text xml:space="preserve" font-family="Helvetica-Bold" font-weight="bold" font-size="13.0" fill="#FEFFFF" transform="matrix(1.00, 0.00, -0.00, -1.00, 86.9, 4.0)">l</text><text xml:space="preserve" font-family="Helvetica-Bold" font-weight="bold" font-size="13.0" fill="#FEFFFF" transform="matrix(1.00, 0.00, -0.00, -1.00, 90.5, 4.0)">’</text><text xml:space="preserve" font-family="Helvetica-Bold" font-weight="bold" font-size="13.0" fill="#FEFFFF" transform="matrix(1.00, 0.00, -0.00, -1.00, 94.2, 4.0)">i</text><text xml:space="preserve" font-family="Helvetica-Bold" font-weight="bold" font-size="13.0" fill="#FEFFFF" transform="matrix(1.00, 0.00, -0.00, -1.00, 97.8, 4.0)">d</text><text xml:space="preserve" font-family="Helvetica-Bold" font-weight="bold" font-size="13.0" fill="#FEFFFF" transform="matrix(1.00, 0.00, -0.00, -1.00, 105.7, 4.0)">e</text><text xml:space="preserve" font-family="Helvetica-Bold" font-weight="bold" font-size="13.0" fill="#FEFFFF" transform="matrix(1.00, 0.00, -0.00, -1.00, 112.9, 4.0)">n</text><text xml:space="preserve" font-family="Helvetica-Bold" font-weight="bold" font-size="13.0" fill="#FEFFFF" transform="matrix(1.00, 0.00, -0.00, -1.00, 120.9, 4.0)">t</text><text xml:space="preserve" font-family="Helvetica-Bold" font-weight="bold" font-size="13.0" fill="#FEFFFF" transform="matrix(1.00, 0.00, -0.00, -1.00, 125.2, 4.0)">i</text><text xml:space="preserve" font-family="Helvetica-Bold" font-weight="bold" font-size="13.0" fill="#FEFFFF" transform="matrix(1.00, 0.00, -0.00, -1.00, 128.8, 4.0)">ﬁ</text><text xml:space="preserve" font-family="Helvetica-Bold" font-weight="bold" font-size="13.0" fill="#FEFFFF" transform="matrix(1.00, 0.00, -0.00, -1.00, 136.8, 4.0)">c</text><text xml:space="preserve" font-family="Helvetica-Bold" font-weight="bold" font-size="13.0" fill="#FEFFFF" transform="matrix(1.00, 0.00, -0.00, -1.00, 144.0, 4.0)">a</text><text xml:space="preserve" font-family="Helvetica-Bold" font-weight="bold" font-size="13.0" fill="#FEFFFF" transform="matrix(1.00, 0.00, -0.00, -1.00, 151.2, 4.0)">t</text><text xml:space="preserve" font-family="Helvetica-Bold" font-weight="bold" font-size="13.0" fill="#FEFFFF" transform="matrix(1.00, 0.00, -0.00, -1.00, 155.5, 4.0)">i</text><text xml:space="preserve" font-family="Helvetica-Bold" font-weight="bold" font-size="13.0" fill="#FEFFFF" transform="matrix(1.00, 0.00, -0.00, -1.00, 159.2, 4.0)">o</text><text xml:space="preserve" font-family="Helvetica-Bold" font-weight="bold" font-size="13.0" fill="#FEFFFF" transform="matrix(1.00, 0.00, -0.00, -1.00, 167.1, 4.0)">n</text><text xml:space="preserve" font-family="Helvetica-Bold" font-weight="bold" font-size="13.0" fill="#FEFFFF" transform="matrix(1.00, 0.00, -0.00, -1.00, 175.0, 4.0)"> </text><text xml:space="preserve" font-family="Helvetica-Bold" font-weight="bold" font-size="13.0" fill="#FEFFFF" transform="matrix(1.00, 0.00, -0.00, -1.00, 178.6, 4.0)">d</text><text xml:space="preserve" font-family="Helvetica-Bold" font-weight="bold" font-size="13.0" fill="#FEFFFF" transform="matrix(1.00, 0.00, -0.00, -1.00, 186.6, 4.0)">’</text><text xml:space="preserve" font-family="Helvetica-Bold" font-weight="bold" font-size="13.0" fill="#FEFFFF" transform="matrix(1.00, 0.00, -0.00, -1.00, 190.2, 4.0)">é</text><text xml:space="preserve" font-family="Helvetica-Bold" font-weight="bold" font-size="13.0" fill="#FEFFFF" transform="matrix(1.00, 0.00, -0.00, -1.00, 197.4, 4.0)">l</text><text xml:space="preserve" font-family="Helvetica-Bold" font-weight="bold" font-size="13.0" fill="#FEFFFF" transform="matrix(1.00, 0.00, -0.00, -1.00, 201.0, 4.0)">é</text><text xml:space="preserve" font-family="Helvetica-Bold" font-weight="bold" font-size="13.0" fill="#FEFFFF" transform="matrix(1.00, 0.00, -0.00, -1.00, 208.3, 4.0)">m</text><text xml:space="preserve" font-family="Helvetica-Bold" font-weight="bold" font-size="13.0" fill="#FEFFFF" transform="matrix(1.00, 0.00, -0.00, -1.00, 219.8, 4.0)">e</text><text xml:space="preserve" font-family="Helvetica-Bold" font-weight="bold" font-size="13.0" fill="#FEFFFF" transform="matrix(1.00, 0.00, -0.00, -1.00, 227.1, 4.0)">n</text><text xml:space="preserve" font-family="Helvetica-Bold" font-weight="bold" font-size="13.0" fill="#FEFFFF" transform="matrix(1.00, 0.00, -0.00, -1.00, 235.0, 4.0)">t</text><text xml:space="preserve" font-family="Helvetica-Bold" font-weight="bold" font-size="13.0" fill="#FEFFFF" transform="matrix(1.00, 0.00, -0.00, -1.00, 239.3, 4.0)">s</text><text xml:space="preserve" font-family="Helvetica-Bold" font-weight="bold" font-size="13.0" fill="#FEFFFF" transform="matrix(1.00, 0.00, -0.00, -1.00, 246.6, 4.0)"> </text><text xml:space="preserve" font-family="Helvetica-Bold" font-weight="bold" font-size="13.0" fill="#FEFFFF" transform="matrix(1.00, 0.00, -0.00, -1.00, 250.2, 4.0)">(</text><text xml:space="preserve" font-family="Helvetica-Bold" font-weight="bold" font-size="13.0" fill="#FEFFFF" transform="matrix(1.00, 0.00, -0.00, -1.00, 254.5, 4.0)">2</text><text xml:space="preserve" font-family="Helvetica-Bold" font-weight="bold" font-size="13.0" fill="#FEFFFF" transform="matrix(1.00, 0.00, -0.00, -1.00, 261.7, 4.0)">e</text><text xml:space="preserve" font-family="Helvetica-Bold" font-weight="bold" font-size="13.0" fill="#FEFFFF" transform="matrix(1.00, 0.00, -0.00, -1.00, 269.0, 4.0)"> </text><text xml:space="preserve" font-family="Helvetica-Bold" font-weight="bold" font-size="13.0" fill="#FEFFFF" transform="matrix(1.00, 0.00, -0.00, -1.00, 272.6, 4.0)">m</text><text xml:space="preserve" font-family="Helvetica-Bold" font-weight="bold" font-size="13.0" fill="#FEFFFF" transform="matrix(1.00, 0.00, -0.00, -1.00, 284.1, 4.0)">o</text><text xml:space="preserve" font-family="Helvetica-Bold" font-weight="bold" font-size="13.0" fill="#FEFFFF" transform="matrix(1.00, 0.00, -0.00, -1.00, 292.1, 4.0)">m</text><text xml:space="preserve" font-family="Helvetica-Bold" font-weight="bold" font-size="13.0" fill="#FEFFFF" transform="matrix(1.00, 0.00, -0.00, -1.00, 303.6, 4.0)">e</text><text xml:space="preserve" font-family="Helvetica-Bold" font-weight="bold" font-size="13.0" fill="#FEFFFF" transform="matrix(1.00, 0.00, -0.00, -1.00, 310.9, 4.0)">n</text><text xml:space="preserve" font-family="Helvetica-Bold" font-weight="bold" font-size="13.0" fill="#FEFFFF" transform="matrix(1.00, 0.00, -0.00, -1.00, 318.8, 4.0)">t</text><text xml:space="preserve" font-family="Helvetica-Bold" font-weight="bold" font-size="13.0" fill="#FEFFFF" transform="matrix(1.00, 0.00, -0.00, -1.00, 323.1, 4.0)">)</text></g></svg>