<?xml version="1.0" encoding="UTF-8" standalone="no"?><svg xmlns="http://www.w3.org/2000/svg" xmlns:xlink="http://www.w3.org/1999/xlink" clip-rule="evenodd" stroke-miterlimit="4.00" viewBox="0 0 1024 768"><desc>SVG generated by Keynote</desc><defs></defs><g transform="matrix(1.00, 0.00, -0.00, -1.00, 0.0, 768.0)"><path d="M 0.0 768.0 L 1024.0 768.0 L 1024.0 0.0 L 0.0 0.0 Z M 0.0 768.0 " fill="#000000"></path><image xlink:href="5993A14EAFE3217B17A90C091BA4B0DD.png" width="675.00" height="494.00" transform="matrix(1.11, 0.00, -0.00, -1.22, 20.0, 710.0)"></image><text xml:space="preserve" font-family="Helvetica-Bold" font-weight="bold" font-size="13.0" fill="#961817" transform="matrix(1.00, 0.00, -0.00, -1.00, 390.0, 745.0)">1</text><text xml:space="preserve" font-family="Helvetica-Bold" font-weight="bold" font-size="13.0" fill="#961817" transform="matrix(1.00, 0.00, -0.00, -1.00, 397.2, 745.0)">e</text><text xml:space="preserve" font-family="Helvetica-Bold" font-weight="bold" font-size="13.0" fill="#961817" transform="matrix(1.00, 0.00, -0.00, -1.00, 404.5, 745.0)">r</text><text xml:space="preserve" font-family="Helvetica-Bold" font-weight="bold" font-size="13.0" fill="#961817" transform="matrix(1.00, 0.00, -0.00, -1.00, 409.5, 745.0)"> </text><text xml:space="preserve" font-family="Helvetica-Bold" font-weight="bold" font-size="13.0" fill="#961817" transform="matrix(1.00, 0.00, -0.00, -1.00, 413.1, 745.0)">t</text><text xml:space="preserve" font-family="Helvetica-Bold" font-weight="bold" font-size="13.0" fill="#961817" transform="matrix(1.00, 0.00, -0.00, -1.00, 417.5, 745.0)">e</text><text xml:space="preserve" font-family="Helvetica-Bold" font-weight="bold" font-size="13.0" fill="#961817" transform="matrix(1.00, 0.00, -0.00, -1.00, 424.7, 745.0)">m</text><text xml:space="preserve" font-family="Helvetica-Bold" font-weight="bold" font-size="13.0" fill="#961817" transform="matrix(1.00, 0.00, -0.00, -1.00, 436.3, 745.0)">p</text><text xml:space="preserve" font-family="Helvetica-Bold" font-weight="bold" font-size="13.0" fill="#961817" transform="matrix(1.00, 0.00, -0.00, -1.00, 444.2, 745.0)">s</text><text xml:space="preserve" font-family="Helvetica-Bold" font-weight="bold" font-size="13.0" fill="#961817" transform="matrix(1.00, 0.00, -0.00, -1.00, 451.4, 745.0)"> </text><text xml:space="preserve" font-family="Helvetica-Bold" font-weight="bold" font-size="13.0" fill="#961817" transform="matrix(1.00, 0.00, -0.00, -1.00, 455.0, 745.0)">:</text><text xml:space="preserve" font-family="Helvetica-Bold" font-weight="bold" font-size="13.0" fill="#961817" transform="matrix(1.00, 0.00, -0.00, -1.00, 459.4, 745.0)"> </text><text xml:space="preserve" font-family="Helvetica-Bold" font-weight="bold" font-size="13.0" fill="#961817" transform="matrix(1.00, 0.00, -0.00, -1.00, 463.0, 745.0)">v</text><text xml:space="preserve" font-family="Helvetica-Bold" font-weight="bold" font-size="13.0" fill="#961817" transform="matrix(1.00, 0.00, -0.00, -1.00, 470.2, 745.0)">i</text><text xml:space="preserve" font-family="Helvetica-Bold" font-weight="bold" font-size="13.0" fill="#961817" transform="matrix(1.00, 0.00, -0.00, -1.00, 473.8, 745.0)">s</text><text xml:space="preserve" font-family="Helvetica-Bold" font-weight="bold" font-size="13.0" fill="#961817" transform="matrix(1.00, 0.00, -0.00, -1.00, 481.1, 745.0)">i</text><text xml:space="preserve" font-family="Helvetica-Bold" font-weight="bold" font-size="13.0" fill="#961817" transform="matrix(1.00, 0.00, -0.00, -1.00, 484.7, 745.0)">o</text><text xml:space="preserve" font-family="Helvetica-Bold" font-weight="bold" font-size="13.0" fill="#961817" transform="matrix(1.00, 0.00, -0.00, -1.00, 492.6, 745.0)">n</text><text xml:space="preserve" font-family="Helvetica-Bold" font-weight="bold" font-size="13.0" fill="#961817" transform="matrix(1.00, 0.00, -0.00, -1.00, 500.5, 745.0)">n</text><text xml:space="preserve" font-family="Helvetica-Bold" font-weight="bold" font-size="13.0" fill="#961817" transform="matrix(1.00, 0.00, -0.00, -1.00, 508.5, 745.0)">a</text><text xml:space="preserve" font-family="Helvetica-Bold" font-weight="bold" font-size="13.0" fill="#961817" transform="matrix(1.00, 0.00, -0.00, -1.00, 515.7, 745.0)">g</text><text xml:space="preserve" font-family="Helvetica-Bold" font-weight="bold" font-size="13.0" fill="#961817" transform="matrix(1.00, 0.00, -0.00, -1.00, 523.6, 745.0)">e</text><text xml:space="preserve" font-family="Helvetica-Bold" font-weight="bold" font-size="13.0" fill="#961817" transform="matrix(1.00, 0.00, -0.00, -1.00, 530.9, 745.0)"> </text><text xml:space="preserve" font-family="Helvetica-Bold" font-weight="bold" font-size="13.0" fill="#961817" transform="matrix(1.00, 0.00, -0.00, -1.00, 534.5, 745.0)">n</text><text xml:space="preserve" font-family="Helvetica-Bold" font-weight="bold" font-size="13.0" fill="#961817" transform="matrix(1.00, 0.00, -0.00, -1.00, 542.4, 745.0)">e</text><text xml:space="preserve" font-family="Helvetica-Bold" font-weight="bold" font-size="13.0" fill="#961817" transform="matrix(1.00, 0.00, -0.00, -1.00, 549.7, 745.0)">u</text><text xml:space="preserve" font-family="Helvetica-Bold" font-weight="bold" font-size="13.0" fill="#961817" transform="matrix(1.00, 0.00, -0.00, -1.00, 557.6, 745.0)">t</text><text xml:space="preserve" font-family="Helvetica-Bold" font-weight="bold" font-size="13.0" fill="#961817" transform="matrix(1.00, 0.00, -0.00, -1.00, 561.9, 745.0)">r</text><text xml:space="preserve" font-family="Helvetica-Bold" font-weight="bold" font-size="13.0" fill="#961817" transform="matrix(1.00, 0.00, -0.00, -1.00, 567.0, 745.0)">e</text><text xml:space="preserve" font-family="Helvetica-Bold" font-weight="bold" font-size="13.0" fill="#961817" transform="matrix(1.00, 0.00, -0.00, -1.00, 574.2, 745.0)"> </text><text xml:space="preserve" font-family="Helvetica-Bold" font-weight="bold" font-size="13.0" fill="#961817" transform="matrix(1.00, 0.00, -0.00, -1.00, 577.8, 745.0)">d</text><text xml:space="preserve" font-family="Helvetica-Bold" font-weight="bold" font-size="13.0" fill="#961817" transform="matrix(1.00, 0.00, -0.00, -1.00, 585.8, 745.0)">e</text><text xml:space="preserve" font-family="Helvetica-Bold" font-weight="bold" font-size="13.0" fill="#961817" transform="matrix(1.00, 0.00, -0.00, -1.00, 593.0, 745.0)">s</text><text xml:space="preserve" font-family="Helvetica-Bold" font-weight="bold" font-size="13.0" fill="#961817" transform="matrix(1.00, 0.00, -0.00, -1.00, 600.2, 745.0)"> </text><text xml:space="preserve" font-family="Helvetica-Bold" font-weight="bold" font-size="13.0" fill="#961817" transform="matrix(1.00, 0.00, -0.00, -1.00, 603.8, 745.0)">ï¬</text><text xml:space="preserve" font-family="Helvetica-Bold" font-weight="bold" font-size="13.0" fill="#961817" transform="matrix(1.00, 0.00, -0.00, -1.00, 611.8, 745.0)">l</text><text xml:space="preserve" font-family="Helvetica-Bold" font-weight="bold" font-size="13.0" fill="#961817" transform="matrix(1.00, 0.00, -0.00, -1.00, 615.4, 745.0)">m</text><text xml:space="preserve" font-family="Helvetica-Bold" font-weight="bold" font-size="13.0" fill="#961817" transform="matrix(1.00, 0.00, -0.00, -1.00, 627.0, 745.0)">s</text><image xlink:href="B860128BC00D8306CA82832CEC78FFCC.png" width="781.00" height="33.00" transform="matrix(1.00, 0.00, -0.00, -1.03, 4.0, 103.0)"></image><path d="M 2.6 144.2 L 5.8 144.2 L 5.8 44.2 L 2.6 44.2 Z M 2.6 144.2 " fill="#000000"></path><path d="M 5.0 102.6 L 6.1 102.6 L 6.1 69.2 L 5.0 69.2 Z M 5.0 102.6 " fill="#961817"></path></g></svg>