<?xml version="1.0" encoding="UTF-8" standalone="no"?><svg xmlns="http://www.w3.org/2000/svg" xmlns:xlink="http://www.w3.org/1999/xlink" clip-rule="evenodd" stroke-miterlimit="4.00" viewBox="0 0 254 158"><desc>SVG generated by Keynote</desc><defs><linearGradient id="gradSh1.0" x1="0.0" y1="0.0" x2="100.0" y2="0.0" gradientUnits="userSpaceOnUse" gradientTransform="matrix(0.00, -1.42, -2.42, 0.00, 127.0, 149.7)"><stop offset="0.00000" stop-color="#FFFCC1"></stop><stop offset="0.01320" stop-color="#FFFCC0"></stop><stop offset="1.00000" stop-color="#FFF499"></stop></linearGradient></defs><g transform="matrix(1.00, 0.00, -0.00, -1.00, 0.0, 158.0)"><image xlink:href="7927E5B2675A622E7C5C38061EA4BC43.png" width="251.00" height="151.00" transform="matrix(1.00, 0.00, -0.00, -1.00, 1.5, 152.2)" opacity="0.25"></image><g><clipPath id="clip-6"><path d="M 7.0 148.7 L 247.0 148.7 L 247.0 8.7 L 7.0 8.7 Z M 7.0 148.7 "></path></clipPath><g clip-path="url(#clip-6)"><path d="M 7.0 148.7 L 247.0 148.7 L 247.0 8.7 L 7.0 8.7 Z M 7.0 148.7 " fill="url(#gradSh1.0)"></path></g></g><path d="M 0.0 0.0 L 240.0 0.0 L 240.0 140.0 L 0.0 140.0 Z M 0.0 0.0 " fill="none" stroke="#000000" stroke-opacity="0.15" stroke-width="1.00" transform="matrix(1.00, 0.00, 0.00, -1.00, 7.0, 148.7)"></path><g><clipPath id="clip-7"><path d="M 14.4 41.7 L 239.7 41.7 L 239.7 122.3 L 14.4 122.3 Z M 14.4 41.7 "></path></clipPath><g clip-path="url(#clip-7)"><text xml:space="preserve" font-family="HelveticaNeue" font-size="16.0" fill="#000000" transform="matrix(1.00, 0.00, -0.00, -1.00, 19.0, 104.0)">m</text><text xml:space="preserve" font-family="HelveticaNeue" font-size="16.0" fill="#000000" transform="matrix(1.00, 0.00, -0.00, -1.00, 32.6, 104.0)">e</text><text xml:space="preserve" font-family="HelveticaNeue" font-size="16.0" fill="#000000" transform="matrix(1.00, 0.00, -0.00, -1.00, 41.2, 104.0)">t</text><text xml:space="preserve" font-family="HelveticaNeue" font-size="16.0" fill="#000000" transform="matrix(1.00, 0.00, -0.00, -1.00, 46.3, 104.0)">t</text><text xml:space="preserve" font-family="HelveticaNeue" font-size="16.0" fill="#000000" transform="matrix(1.00, 0.00, -0.00, -1.00, 51.3, 104.0)">r</text><text xml:space="preserve" font-family="HelveticaNeue" font-size="16.0" fill="#000000" transform="matrix(1.00, 0.00, -0.00, -1.00, 56.4, 104.0)">e</text><text xml:space="preserve" font-family="HelveticaNeue" font-size="16.0" fill="#000000" transform="matrix(1.00, 0.00, -0.00, -1.00, 65.0, 104.0)"> </text><text xml:space="preserve" font-family="HelveticaNeue" font-size="16.0" fill="#000000" transform="matrix(1.00, 0.00, -0.00, -1.00, 69.4, 104.0)">i</text><text xml:space="preserve" font-family="HelveticaNeue" font-size="16.0" fill="#000000" transform="matrix(1.00, 0.00, -0.00, -1.00, 73.0, 104.0)">n</text><text xml:space="preserve" font-family="HelveticaNeue" font-size="16.0" fill="#000000" transform="matrix(1.00, 0.00, -0.00, -1.00, 81.8, 104.0)">s</text><text xml:space="preserve" font-family="HelveticaNeue" font-size="16.0" fill="#000000" transform="matrix(1.00, 0.00, -0.00, -1.00, 89.8, 104.0)">t</text><text xml:space="preserve" font-family="HelveticaNeue" font-size="16.0" fill="#000000" transform="matrix(1.00, 0.00, -0.00, -1.00, 94.9, 104.0)">r</text><text xml:space="preserve" font-family="HelveticaNeue" font-size="16.0" fill="#000000" transform="matrix(1.00, 0.00, -0.00, -1.00, 100.2, 104.0)">u</text><text xml:space="preserve" font-family="HelveticaNeue" font-size="16.0" fill="#000000" transform="matrix(1.00, 0.00, -0.00, -1.00, 109.1, 104.0)">c</text><text xml:space="preserve" font-family="HelveticaNeue" font-size="16.0" fill="#000000" transform="matrix(1.00, 0.00, -0.00, -1.00, 117.7, 104.0)">t</text><text xml:space="preserve" font-family="HelveticaNeue" font-size="16.0" fill="#000000" transform="matrix(1.00, 0.00, -0.00, -1.00, 122.7, 104.0)">i</text><text xml:space="preserve" font-family="HelveticaNeue" font-size="16.0" fill="#000000" transform="matrix(1.00, 0.00, -0.00, -1.00, 126.3, 104.0)">o</text><text xml:space="preserve" font-family="HelveticaNeue" font-size="16.0" fill="#000000" transform="matrix(1.00, 0.00, -0.00, -1.00, 135.5, 104.0)">n</text><text xml:space="preserve" font-family="HelveticaNeue" font-size="16.0" fill="#000000" transform="matrix(1.00, 0.00, -0.00, -1.00, 144.4, 104.0)">s</text></g></g></g></svg>