<?xml version="1.0" encoding="UTF-8" standalone="no"?><svg xmlns="http://www.w3.org/2000/svg" xmlns:xlink="http://www.w3.org/1999/xlink" clip-rule="evenodd" stroke-miterlimit="4.00" viewBox="0 0 108 157"><desc>SVG generated by Keynote</desc><defs></defs><g transform="matrix(1.00, 0.00, -0.00, -1.00, 0.0, 157.0)"><g><clipPath id="clip-0"><path d="M 0.5 49.5 L 107.9 49.5 L 107.9 156.9 L 0.5 156.9 Z M 0.5 49.5 "></path></clipPath><g clip-path="url(#clip-0)"><path d="M 85.7 14.7 C 105.3 34.3 105.3 66.1 85.7 85.7 C 66.1 105.3 34.3 105.3 14.7 85.7 C -4.9 66.1 -4.9 34.3 14.7 14.7 C 34.3 -4.9 66.1 -4.9 85.7 14.7 Z M 85.7 14.7 " fill="none" stroke="#52575F" stroke-width="5.00" transform="matrix(1.00, 0.00, 0.00, -1.00, 4.0, 153.4)"></path></g></g><g><clipPath id="clip-1"><path d="M 30.3 83.0 L 70.0 83.0 L 70.0 123.4 L 30.3 123.4 Z M 30.3 83.0 "></path></clipPath><g clip-path="url(#clip-1)"><path d="M 32.0 0.0 L 0.0 21.6 L 34.0 35.7 " fill="none" stroke="#52575F" stroke-width="3.00" transform="matrix(1.00, 0.00, 0.00, -1.00, 34.5, 121.1)"></path></g></g><g><clipPath id="clip-2"><path d="M 7.3 -1.6 L 101.1 -1.6 L 101.1 49.4 L 7.3 49.4 Z M 7.3 -1.6 "></path></clipPath><g clip-path="url(#clip-2)"><text xml:space="preserve" font-family="Helvetica-Light" font-size="30.0" fill="#52575F" transform="matrix(1.00, 0.00, -0.00, -1.00, 15.0, 13.0)">r</text><text xml:space="preserve" font-family="Helvetica-Light" font-size="30.0" fill="#52575F" transform="matrix(1.00, 0.00, -0.00, -1.00, 24.5, 13.0)">e</text><text xml:space="preserve" font-family="Helvetica-Light" font-size="30.0" fill="#52575F" transform="matrix(1.00, 0.00, -0.00, -1.00, 41.1, 13.0)">t</text><text xml:space="preserve" font-family="Helvetica-Light" font-size="30.0" fill="#52575F" transform="matrix(1.00, 0.00, -0.00, -1.00, 49.5, 13.0)">o</text><text xml:space="preserve" font-family="Helvetica-Light" font-size="30.0" fill="#52575F" transform="matrix(1.00, 0.00, -0.00, -1.00, 66.2, 13.0)">u</text><text xml:space="preserve" font-family="Helvetica-Light" font-size="30.0" fill="#52575F" transform="matrix(1.00, 0.00, -0.00, -1.00, 82.8, 13.0)">r</text></g></g></g></svg>