<?xml version="1.0" encoding="UTF-8" standalone="no"?><svg xmlns="http://www.w3.org/2000/svg" xmlns:xlink="http://www.w3.org/1999/xlink" clip-rule="evenodd" stroke-miterlimit="4.00" viewBox="0 0 247 16"><desc>SVG generated by Keynote</desc><defs></defs><g transform="matrix(1.00, 0.00, -0.00, -1.00, 0.0, 16.0)"><text xml:space="preserve" font-family="Helvetica-Bold" font-weight="bold" font-size="13.0" fill="#961817" transform="matrix(1.00, 0.00, -0.00, -1.00, 1.0, 4.0)">1</text><text xml:space="preserve" font-family="Helvetica-Bold" font-weight="bold" font-size="13.0" fill="#961817" transform="matrix(1.00, 0.00, -0.00, -1.00, 8.2, 4.0)">e</text><text xml:space="preserve" font-family="Helvetica-Bold" font-weight="bold" font-size="13.0" fill="#961817" transform="matrix(1.00, 0.00, -0.00, -1.00, 15.5, 4.0)">r</text><text xml:space="preserve" font-family="Helvetica-Bold" font-weight="bold" font-size="13.0" fill="#961817" transform="matrix(1.00, 0.00, -0.00, -1.00, 20.5, 4.0)"> </text><text xml:space="preserve" font-family="Helvetica-Bold" font-weight="bold" font-size="13.0" fill="#961817" transform="matrix(1.00, 0.00, -0.00, -1.00, 24.1, 4.0)">t</text><text xml:space="preserve" font-family="Helvetica-Bold" font-weight="bold" font-size="13.0" fill="#961817" transform="matrix(1.00, 0.00, -0.00, -1.00, 28.5, 4.0)">e</text><text xml:space="preserve" font-family="Helvetica-Bold" font-weight="bold" font-size="13.0" fill="#961817" transform="matrix(1.00, 0.00, -0.00, -1.00, 35.7, 4.0)">m</text><text xml:space="preserve" font-family="Helvetica-Bold" font-weight="bold" font-size="13.0" fill="#961817" transform="matrix(1.00, 0.00, -0.00, -1.00, 47.3, 4.0)">p</text><text xml:space="preserve" font-family="Helvetica-Bold" font-weight="bold" font-size="13.0" fill="#961817" transform="matrix(1.00, 0.00, -0.00, -1.00, 55.2, 4.0)">s</text><text xml:space="preserve" font-family="Helvetica-Bold" font-weight="bold" font-size="13.0" fill="#961817" transform="matrix(1.00, 0.00, -0.00, -1.00, 62.4, 4.0)"> </text><text xml:space="preserve" font-family="Helvetica-Bold" font-weight="bold" font-size="13.0" fill="#961817" transform="matrix(1.00, 0.00, -0.00, -1.00, 66.0, 4.0)">:</text><text xml:space="preserve" font-family="Helvetica-Bold" font-weight="bold" font-size="13.0" fill="#961817" transform="matrix(1.00, 0.00, -0.00, -1.00, 70.4, 4.0)"> </text><text xml:space="preserve" font-family="Helvetica-Bold" font-weight="bold" font-size="13.0" fill="#961817" transform="matrix(1.00, 0.00, -0.00, -1.00, 74.0, 4.0)">v</text><text xml:space="preserve" font-family="Helvetica-Bold" font-weight="bold" font-size="13.0" fill="#961817" transform="matrix(1.00, 0.00, -0.00, -1.00, 81.2, 4.0)">i</text><text xml:space="preserve" font-family="Helvetica-Bold" font-weight="bold" font-size="13.0" fill="#961817" transform="matrix(1.00, 0.00, -0.00, -1.00, 84.8, 4.0)">s</text><text xml:space="preserve" font-family="Helvetica-Bold" font-weight="bold" font-size="13.0" fill="#961817" transform="matrix(1.00, 0.00, -0.00, -1.00, 92.1, 4.0)">i</text><text xml:space="preserve" font-family="Helvetica-Bold" font-weight="bold" font-size="13.0" fill="#961817" transform="matrix(1.00, 0.00, -0.00, -1.00, 95.7, 4.0)">o</text><text xml:space="preserve" font-family="Helvetica-Bold" font-weight="bold" font-size="13.0" fill="#961817" transform="matrix(1.00, 0.00, -0.00, -1.00, 103.6, 4.0)">n</text><text xml:space="preserve" font-family="Helvetica-Bold" font-weight="bold" font-size="13.0" fill="#961817" transform="matrix(1.00, 0.00, -0.00, -1.00, 111.5, 4.0)">n</text><text xml:space="preserve" font-family="Helvetica-Bold" font-weight="bold" font-size="13.0" fill="#961817" transform="matrix(1.00, 0.00, -0.00, -1.00, 119.5, 4.0)">a</text><text xml:space="preserve" font-family="Helvetica-Bold" font-weight="bold" font-size="13.0" fill="#961817" transform="matrix(1.00, 0.00, -0.00, -1.00, 126.7, 4.0)">g</text><text xml:space="preserve" font-family="Helvetica-Bold" font-weight="bold" font-size="13.0" fill="#961817" transform="matrix(1.00, 0.00, -0.00, -1.00, 134.6, 4.0)">e</text><text xml:space="preserve" font-family="Helvetica-Bold" font-weight="bold" font-size="13.0" fill="#961817" transform="matrix(1.00, 0.00, -0.00, -1.00, 141.9, 4.0)"> </text><text xml:space="preserve" font-family="Helvetica-Bold" font-weight="bold" font-size="13.0" fill="#961817" transform="matrix(1.00, 0.00, -0.00, -1.00, 145.5, 4.0)">n</text><text xml:space="preserve" font-family="Helvetica-Bold" font-weight="bold" font-size="13.0" fill="#961817" transform="matrix(1.00, 0.00, -0.00, -1.00, 153.4, 4.0)">e</text><text xml:space="preserve" font-family="Helvetica-Bold" font-weight="bold" font-size="13.0" fill="#961817" transform="matrix(1.00, 0.00, -0.00, -1.00, 160.7, 4.0)">u</text><text xml:space="preserve" font-family="Helvetica-Bold" font-weight="bold" font-size="13.0" fill="#961817" transform="matrix(1.00, 0.00, -0.00, -1.00, 168.6, 4.0)">t</text><text xml:space="preserve" font-family="Helvetica-Bold" font-weight="bold" font-size="13.0" fill="#961817" transform="matrix(1.00, 0.00, -0.00, -1.00, 172.9, 4.0)">r</text><text xml:space="preserve" font-family="Helvetica-Bold" font-weight="bold" font-size="13.0" fill="#961817" transform="matrix(1.00, 0.00, -0.00, -1.00, 178.0, 4.0)">e</text><text xml:space="preserve" font-family="Helvetica-Bold" font-weight="bold" font-size="13.0" fill="#961817" transform="matrix(1.00, 0.00, -0.00, -1.00, 185.2, 4.0)"> </text><text xml:space="preserve" font-family="Helvetica-Bold" font-weight="bold" font-size="13.0" fill="#961817" transform="matrix(1.00, 0.00, -0.00, -1.00, 188.8, 4.0)">d</text><text xml:space="preserve" font-family="Helvetica-Bold" font-weight="bold" font-size="13.0" fill="#961817" transform="matrix(1.00, 0.00, -0.00, -1.00, 196.8, 4.0)">e</text><text xml:space="preserve" font-family="Helvetica-Bold" font-weight="bold" font-size="13.0" fill="#961817" transform="matrix(1.00, 0.00, -0.00, -1.00, 204.0, 4.0)">s</text><text xml:space="preserve" font-family="Helvetica-Bold" font-weight="bold" font-size="13.0" fill="#961817" transform="matrix(1.00, 0.00, -0.00, -1.00, 211.2, 4.0)"> </text><text xml:space="preserve" font-family="Helvetica-Bold" font-weight="bold" font-size="13.0" fill="#961817" transform="matrix(1.00, 0.00, -0.00, -1.00, 214.8, 4.0)">ï¬</text><text xml:space="preserve" font-family="Helvetica-Bold" font-weight="bold" font-size="13.0" fill="#961817" transform="matrix(1.00, 0.00, -0.00, -1.00, 222.8, 4.0)">l</text><text xml:space="preserve" font-family="Helvetica-Bold" font-weight="bold" font-size="13.0" fill="#961817" transform="matrix(1.00, 0.00, -0.00, -1.00, 226.4, 4.0)">m</text><text xml:space="preserve" font-family="Helvetica-Bold" font-weight="bold" font-size="13.0" fill="#961817" transform="matrix(1.00, 0.00, -0.00, -1.00, 238.0, 4.0)">s</text></g></svg>