<?xml version="1.0" encoding="UTF-8" standalone="no"?><svg xmlns="http://www.w3.org/2000/svg" xmlns:xlink="http://www.w3.org/1999/xlink" clip-rule="evenodd" stroke-miterlimit="4.00" viewBox="0 0 776 68"><desc>SVG generated by Keynote</desc><defs></defs><g transform="matrix(1.00, 0.00, -0.00, -1.00, 0.0, 68.0)"><text xml:space="preserve" font-family="Helvetica-Light" font-size="30.0" fill="#FEFFFF" transform="matrix(1.00, 0.00, -0.00, -1.00, 1.0, 44.0)">T</text><text xml:space="preserve" font-family="Helvetica-Light" font-size="30.0" fill="#FEFFFF" transform="matrix(1.00, 0.00, -0.00, -1.00, 14.3, 44.0)">e</text><text xml:space="preserve" font-family="Helvetica-Light" font-size="30.0" fill="#FEFFFF" transform="matrix(1.00, 0.00, -0.00, -1.00, 31.0, 44.0)">x</text><text xml:space="preserve" font-family="Helvetica-Light" font-size="30.0" fill="#FEFFFF" transform="matrix(1.00, 0.00, -0.00, -1.00, 46.0, 44.0)">t</text><text xml:space="preserve" font-family="Helvetica-Light" font-size="30.0" fill="#FEFFFF" transform="matrix(1.00, 0.00, -0.00, -1.00, 54.4, 44.0)">e</text><text xml:space="preserve" font-family="Helvetica-Light" font-size="30.0" fill="#FEFFFF" transform="matrix(1.00, 0.00, -0.00, -1.00, 71.1, 44.0)"> </text><text xml:space="preserve" font-family="Helvetica-Light" font-size="30.0" fill="#FEFFFF" transform="matrix(1.00, 0.00, -0.00, -1.00, 79.4, 44.0)">d</text><text xml:space="preserve" font-family="Helvetica-Light" font-size="30.0" fill="#FEFFFF" transform="matrix(1.00, 0.00, -0.00, -1.00, 97.7, 44.0)">’</text><text xml:space="preserve" font-family="Helvetica-Light" font-size="30.0" fill="#FEFFFF" transform="matrix(1.00, 0.00, -0.00, -1.00, 104.4, 44.0)">i</text><text xml:space="preserve" font-family="Helvetica-Light" font-size="30.0" fill="#FEFFFF" transform="matrix(1.00, 0.00, -0.00, -1.00, 111.0, 44.0)">n</text><text xml:space="preserve" font-family="Helvetica-Light" font-size="30.0" fill="#FEFFFF" transform="matrix(1.00, 0.00, -0.00, -1.00, 127.7, 44.0)">t</text><text xml:space="preserve" font-family="Helvetica-Light" font-size="30.0" fill="#FEFFFF" transform="matrix(1.00, 0.00, -0.00, -1.00, 136.1, 44.0)">r</text><text xml:space="preserve" font-family="Helvetica-Light" font-size="30.0" fill="#FEFFFF" transform="matrix(1.00, 0.00, -0.00, -1.00, 145.5, 44.0)">o</text><text xml:space="preserve" font-family="Helvetica-Light" font-size="30.0" fill="#FEFFFF" transform="matrix(1.00, 0.00, -0.00, -1.00, 162.2, 44.0)">d</text><text xml:space="preserve" font-family="Helvetica-Light" font-size="30.0" fill="#FEFFFF" transform="matrix(1.00, 0.00, -0.00, -1.00, 180.5, 44.0)">u</text><text xml:space="preserve" font-family="Helvetica-Light" font-size="30.0" fill="#FEFFFF" transform="matrix(1.00, 0.00, -0.00, -1.00, 197.2, 44.0)">c</text><text xml:space="preserve" font-family="Helvetica-Light" font-size="30.0" fill="#FEFFFF" transform="matrix(1.00, 0.00, -0.00, -1.00, 213.9, 44.0)">t</text><text xml:space="preserve" font-family="Helvetica-Light" font-size="30.0" fill="#FEFFFF" transform="matrix(1.00, 0.00, -0.00, -1.00, 222.2, 44.0)">i</text><text xml:space="preserve" font-family="Helvetica-Light" font-size="30.0" fill="#FEFFFF" transform="matrix(1.00, 0.00, -0.00, -1.00, 228.9, 44.0)">o</text><text xml:space="preserve" font-family="Helvetica-Light" font-size="30.0" fill="#FEFFFF" transform="matrix(1.00, 0.00, -0.00, -1.00, 245.6, 44.0)">n</text><text xml:space="preserve" font-family="Helvetica-Light" font-size="30.0" fill="#FEFFFF" transform="matrix(1.00, 0.00, -0.00, -1.00, 262.2, 44.0)"> </text><text xml:space="preserve" font-family="Helvetica-Light" font-size="30.0" fill="#FEFFFF" transform="matrix(1.00, 0.00, -0.00, -1.00, 270.6, 44.0)">d</text><text xml:space="preserve" font-family="Helvetica-Light" font-size="30.0" fill="#FEFFFF" transform="matrix(1.00, 0.00, -0.00, -1.00, 288.9, 44.0)">u</text><text xml:space="preserve" font-family="Helvetica-Light" font-size="30.0" fill="#FEFFFF" transform="matrix(1.00, 0.00, -0.00, -1.00, 305.6, 44.0)"> </text><text xml:space="preserve" font-family="Helvetica-Light" font-size="30.0" fill="#FEFFFF" transform="matrix(1.00, 0.00, -0.00, -1.00, 313.9, 44.0)">d</text><text xml:space="preserve" font-family="Helvetica-Light" font-size="30.0" fill="#FEFFFF" transform="matrix(1.00, 0.00, -0.00, -1.00, 332.3, 44.0)">i</text><text xml:space="preserve" font-family="Helvetica-Light" font-size="30.0" fill="#FEFFFF" transform="matrix(1.00, 0.00, -0.00, -1.00, 338.9, 44.0)">s</text><text xml:space="preserve" font-family="Helvetica-Light" font-size="30.0" fill="#FEFFFF" transform="matrix(1.00, 0.00, -0.00, -1.00, 353.9, 44.0)">p</text><text xml:space="preserve" font-family="Helvetica-Light" font-size="30.0" fill="#FEFFFF" transform="matrix(1.00, 0.00, -0.00, -1.00, 372.2, 44.0)">o</text><text xml:space="preserve" font-family="Helvetica-Light" font-size="30.0" fill="#FEFFFF" transform="matrix(1.00, 0.00, -0.00, -1.00, 388.9, 44.0)">s</text><text xml:space="preserve" font-family="Helvetica-Light" font-size="30.0" fill="#FEFFFF" transform="matrix(1.00, 0.00, -0.00, -1.00, 403.9, 44.0)">i</text><text xml:space="preserve" font-family="Helvetica-Light" font-size="30.0" fill="#FEFFFF" transform="matrix(1.00, 0.00, -0.00, -1.00, 410.6, 44.0)">t</text><text xml:space="preserve" font-family="Helvetica-Light" font-size="30.0" fill="#FEFFFF" transform="matrix(1.00, 0.00, -0.00, -1.00, 418.9, 44.0)">i</text><text xml:space="preserve" font-family="Helvetica-Light" font-size="30.0" fill="#FEFFFF" transform="matrix(1.00, 0.00, -0.00, -1.00, 425.6, 44.0)">f</text><text xml:space="preserve" font-family="Helvetica-Light" font-size="30.0" fill="#FEFFFF" transform="matrix(1.00, 0.00, -0.00, -1.00, 433.9, 44.0)">,</text><text xml:space="preserve" font-family="Helvetica-Light" font-size="30.0" fill="#FEFFFF" transform="matrix(1.00, 0.00, -0.00, -1.00, 442.3, 44.0)"> </text><text xml:space="preserve" font-family="Helvetica-Light" font-size="30.0" fill="#FEFFFF" transform="matrix(1.00, 0.00, -0.00, -1.00, 450.6, 44.0)">e</text><text xml:space="preserve" font-family="Helvetica-Light" font-size="30.0" fill="#FEFFFF" transform="matrix(1.00, 0.00, -0.00, -1.00, 467.3, 44.0)">x</text><text xml:space="preserve" font-family="Helvetica-Light" font-size="30.0" fill="#FEFFFF" transform="matrix(1.00, 0.00, -0.00, -1.00, 482.3, 44.0)">p</text><text xml:space="preserve" font-family="Helvetica-Light" font-size="30.0" fill="#FEFFFF" transform="matrix(1.00, 0.00, -0.00, -1.00, 500.6, 44.0)">l</text><text xml:space="preserve" font-family="Helvetica-Light" font-size="30.0" fill="#FEFFFF" transform="matrix(1.00, 0.00, -0.00, -1.00, 507.3, 44.0)">i</text><text xml:space="preserve" font-family="Helvetica-Light" font-size="30.0" fill="#FEFFFF" transform="matrix(1.00, 0.00, -0.00, -1.00, 513.9, 44.0)">q</text><text xml:space="preserve" font-family="Helvetica-Light" font-size="30.0" fill="#FEFFFF" transform="matrix(1.00, 0.00, -0.00, -1.00, 532.3, 44.0)">u</text><text xml:space="preserve" font-family="Helvetica-Light" font-size="30.0" fill="#FEFFFF" transform="matrix(1.00, 0.00, -0.00, -1.00, 548.9, 44.0)">a</text><text xml:space="preserve" font-family="Helvetica-Light" font-size="30.0" fill="#FEFFFF" transform="matrix(1.00, 0.00, -0.00, -1.00, 565.6, 44.0)">n</text><text xml:space="preserve" font-family="Helvetica-Light" font-size="30.0" fill="#FEFFFF" transform="matrix(1.00, 0.00, -0.00, -1.00, 582.3, 44.0)">t</text><text xml:space="preserve" font-family="Helvetica-Light" font-size="30.0" fill="#FEFFFF" transform="matrix(1.00, 0.00, -0.00, -1.00, 590.6, 44.0)"> </text><text xml:space="preserve" font-family="Helvetica-Light" font-size="30.0" fill="#FEFFFF" transform="matrix(1.00, 0.00, -0.00, -1.00, 599.0, 44.0)">s</text><text xml:space="preserve" font-family="Helvetica-Light" font-size="30.0" fill="#FEFFFF" transform="matrix(1.00, 0.00, -0.00, -1.00, 614.0, 44.0)">o</text><text xml:space="preserve" font-family="Helvetica-Light" font-size="30.0" fill="#FEFFFF" transform="matrix(1.00, 0.00, -0.00, -1.00, 630.7, 44.0)">n</text><text xml:space="preserve" font-family="Helvetica-Light" font-size="30.0" fill="#FEFFFF" transform="matrix(1.00, 0.00, -0.00, -1.00, 647.3, 44.0)"> </text><text xml:space="preserve" font-family="Helvetica-Light" font-size="30.0" fill="#FEFFFF" transform="matrix(1.00, 0.00, -0.00, -1.00, 655.7, 44.0)">p</text><text xml:space="preserve" font-family="Helvetica-Light" font-size="30.0" fill="#FEFFFF" transform="matrix(1.00, 0.00, -0.00, -1.00, 674.0, 44.0)">r</text><text xml:space="preserve" font-family="Helvetica-Light" font-size="30.0" fill="#FEFFFF" transform="matrix(1.00, 0.00, -0.00, -1.00, 684.0, 44.0)">i</text><text xml:space="preserve" font-family="Helvetica-Light" font-size="30.0" fill="#FEFFFF" transform="matrix(1.00, 0.00, -0.00, -1.00, 690.7, 44.0)">n</text><text xml:space="preserve" font-family="Helvetica-Light" font-size="30.0" fill="#FEFFFF" transform="matrix(1.00, 0.00, -0.00, -1.00, 707.3, 44.0)">c</text><text xml:space="preserve" font-family="Helvetica-Light" font-size="30.0" fill="#FEFFFF" transform="matrix(1.00, 0.00, -0.00, -1.00, 724.0, 44.0)">i</text><text xml:space="preserve" font-family="Helvetica-Light" font-size="30.0" fill="#FEFFFF" transform="matrix(1.00, 0.00, -0.00, -1.00, 730.7, 44.0)">p</text><text xml:space="preserve" font-family="Helvetica-Light" font-size="30.0" fill="#FEFFFF" transform="matrix(1.00, 0.00, -0.00, -1.00, 749.0, 44.0)">e</text><text xml:space="preserve" font-family="Helvetica-Light" font-size="30.0" fill="#FEFFFF" transform="matrix(1.00, 0.00, -0.00, -1.00, 765.7, 44.0)">.</text><text xml:space="preserve" font-family="Helvetica-Light" font-size="30.0" fill="#FEFFFF" transform="matrix(1.00, 0.00, -0.00, -1.00, 774.0, 44.0)"> </text><text xml:space="preserve" font-family="Helvetica-Light" font-size="30.0" fill="#FEFFFF" transform="matrix(1.00, 0.00, -0.00, -1.00, 211.0, 8.0)">I</text><text xml:space="preserve" font-family="Helvetica-Light" font-size="30.0" fill="#FEFFFF" transform="matrix(1.00, 0.00, -0.00, -1.00, 219.3, 8.0)">n</text><text xml:space="preserve" font-family="Helvetica-Light" font-size="30.0" fill="#FEFFFF" transform="matrix(1.00, 0.00, -0.00, -1.00, 236.0, 8.0)">t</text><text xml:space="preserve" font-family="Helvetica-Light" font-size="30.0" fill="#FEFFFF" transform="matrix(1.00, 0.00, -0.00, -1.00, 244.4, 8.0)">r</text><text xml:space="preserve" font-family="Helvetica-Light" font-size="30.0" fill="#FEFFFF" transform="matrix(1.00, 0.00, -0.00, -1.00, 253.8, 8.0)">o</text><text xml:space="preserve" font-family="Helvetica-Light" font-size="30.0" fill="#FEFFFF" transform="matrix(1.00, 0.00, -0.00, -1.00, 270.5, 8.0)">d</text><text xml:space="preserve" font-family="Helvetica-Light" font-size="30.0" fill="#FEFFFF" transform="matrix(1.00, 0.00, -0.00, -1.00, 288.8, 8.0)">u</text><text xml:space="preserve" font-family="Helvetica-Light" font-size="30.0" fill="#FEFFFF" transform="matrix(1.00, 0.00, -0.00, -1.00, 305.5, 8.0)">c</text><text xml:space="preserve" font-family="Helvetica-Light" font-size="30.0" fill="#FEFFFF" transform="matrix(1.00, 0.00, -0.00, -1.00, 322.2, 8.0)">t</text><text xml:space="preserve" font-family="Helvetica-Light" font-size="30.0" fill="#FEFFFF" transform="matrix(1.00, 0.00, -0.00, -1.00, 330.5, 8.0)">i</text><text xml:space="preserve" font-family="Helvetica-Light" font-size="30.0" fill="#FEFFFF" transform="matrix(1.00, 0.00, -0.00, -1.00, 337.2, 8.0)">o</text><text xml:space="preserve" font-family="Helvetica-Light" font-size="30.0" fill="#FEFFFF" transform="matrix(1.00, 0.00, -0.00, -1.00, 353.9, 8.0)">n</text><text xml:space="preserve" font-family="Helvetica-Light" font-size="30.0" fill="#FEFFFF" transform="matrix(1.00, 0.00, -0.00, -1.00, 370.5, 8.0)"> </text><text xml:space="preserve" font-family="Helvetica-Light" font-size="30.0" fill="#FEFFFF" transform="matrix(1.00, 0.00, -0.00, -1.00, 378.9, 8.0)">d</text><text xml:space="preserve" font-family="Helvetica-Light" font-size="30.0" fill="#FEFFFF" transform="matrix(1.00, 0.00, -0.00, -1.00, 397.2, 8.0)">u</text><text xml:space="preserve" font-family="Helvetica-Light" font-size="30.0" fill="#FEFFFF" transform="matrix(1.00, 0.00, -0.00, -1.00, 413.9, 8.0)"> </text><text xml:space="preserve" font-family="Helvetica-Light" font-size="30.0" fill="#FEFFFF" transform="matrix(1.00, 0.00, -0.00, -1.00, 422.2, 8.0)">1</text><text xml:space="preserve" font-family="Helvetica-Light" font-size="30.0" fill="#FEFFFF" transform="matrix(1.00, 0.00, -0.00, -1.00, 438.9, 8.0)">e</text><text xml:space="preserve" font-family="Helvetica-Light" font-size="30.0" fill="#FEFFFF" transform="matrix(1.00, 0.00, -0.00, -1.00, 455.6, 8.0)">r</text><text xml:space="preserve" font-family="Helvetica-Light" font-size="30.0" fill="#FEFFFF" transform="matrix(1.00, 0.00, -0.00, -1.00, 465.6, 8.0)"> </text><text xml:space="preserve" font-family="Helvetica-Light" font-size="30.0" fill="#FEFFFF" transform="matrix(1.00, 0.00, -0.00, -1.00, 473.9, 8.0)">t</text><text xml:space="preserve" font-family="Helvetica-Light" font-size="30.0" fill="#FEFFFF" transform="matrix(1.00, 0.00, -0.00, -1.00, 482.3, 8.0)">e</text><text xml:space="preserve" font-family="Helvetica-Light" font-size="30.0" fill="#FEFFFF" transform="matrix(1.00, 0.00, -0.00, -1.00, 498.9, 8.0)">m</text><text xml:space="preserve" font-family="Helvetica-Light" font-size="30.0" fill="#FEFFFF" transform="matrix(1.00, 0.00, -0.00, -1.00, 523.9, 8.0)">p</text><text xml:space="preserve" font-family="Helvetica-Light" font-size="30.0" fill="#FEFFFF" transform="matrix(1.00, 0.00, -0.00, -1.00, 542.3, 8.0)">s</text><text xml:space="preserve" font-family="Helvetica-Light" font-size="30.0" fill="#FEFFFF" transform="matrix(1.00, 0.00, -0.00, -1.00, 557.3, 8.0)">.</text></g></svg>