<?xml version="1.0" encoding="UTF-8" standalone="no"?><svg xmlns="http://www.w3.org/2000/svg" xmlns:xlink="http://www.w3.org/1999/xlink" clip-rule="evenodd" stroke-miterlimit="4.00" viewBox="0 0 132 18"><desc>SVG generated by Keynote</desc><defs></defs><g transform="matrix(1.00, 0.00, -0.00, -1.00, 0.0, 18.0)"><text xml:space="preserve" font-family="Helvetica-Light" font-size="18.0" fill="#000000" transform="matrix(1.00, 0.00, -0.00, -1.00, 1.0, 2.0)">c</text><text xml:space="preserve" font-family="Helvetica-Light" font-size="18.0" fill="#000000" transform="matrix(1.00, 0.00, -0.00, -1.00, 11.0, 2.0)">h</text><text xml:space="preserve" font-family="Helvetica-Light" font-size="18.0" fill="#000000" transform="matrix(1.00, 0.00, -0.00, -1.00, 21.0, 2.0)">a</text><text xml:space="preserve" font-family="Helvetica-Light" font-size="18.0" fill="#000000" transform="matrix(1.00, 0.00, -0.00, -1.00, 31.0, 2.0)">s</text><text xml:space="preserve" font-family="Helvetica-Light" font-size="18.0" fill="#000000" transform="matrix(1.00, 0.00, -0.00, -1.00, 40.0, 2.0)">s</text><text xml:space="preserve" font-family="Helvetica-Light" font-size="18.0" fill="#000000" transform="matrix(1.00, 0.00, -0.00, -1.00, 49.0, 2.0)">e</text><text xml:space="preserve" font-family="Helvetica-Light" font-size="18.0" fill="#000000" transform="matrix(1.00, 0.00, -0.00, -1.00, 59.0, 2.0)">-</text><text xml:space="preserve" font-family="Helvetica-Light" font-size="18.0" fill="#000000" transform="matrix(1.00, 0.00, -0.00, -1.00, 65.0, 2.0)">m</text><text xml:space="preserve" font-family="Helvetica-Light" font-size="18.0" fill="#000000" transform="matrix(1.00, 0.00, -0.00, -1.00, 80.0, 2.0)">o</text><text xml:space="preserve" font-family="Helvetica-Light" font-size="18.0" fill="#000000" transform="matrix(1.00, 0.00, -0.00, -1.00, 90.0, 2.0)">u</text><text xml:space="preserve" font-family="Helvetica-Light" font-size="18.0" fill="#000000" transform="matrix(1.00, 0.00, -0.00, -1.00, 100.0, 2.0)">c</text><text xml:space="preserve" font-family="Helvetica-Light" font-size="18.0" fill="#000000" transform="matrix(1.00, 0.00, -0.00, -1.00, 110.0, 2.0)">h</text><text xml:space="preserve" font-family="Helvetica-Light" font-size="18.0" fill="#000000" transform="matrix(1.00, 0.00, -0.00, -1.00, 120.1, 2.0)">e</text></g></svg>