<?xml version="1.0" encoding="UTF-8" standalone="no"?><svg xmlns="http://www.w3.org/2000/svg" xmlns:xlink="http://www.w3.org/1999/xlink" clip-rule="evenodd" stroke-miterlimit="4.00" viewBox="0 0 238 73"><desc>SVG generated by Keynote</desc><defs></defs><g transform="matrix(1.00, 0.00, -0.00, -1.00, 0.0, 73.0)"><path d="M 2.6 70.3 L 235.6 70.3 L 235.6 2.6 L 2.6 2.6 Z M 2.6 70.3 " fill="#DCDDE0"></path><path d="M 0.0 0.0 L 233.0 0.0 L 233.0 67.7 L 0.0 67.7 Z M 0.0 0.0 " fill="none" stroke="#000000" stroke-width="2.00" transform="matrix(1.00, 0.00, 0.00, -1.00, 2.6, 70.3)"></path><g><clipPath id="clip-126"><path d="M 1.1 3.6 L 237.1 3.6 L 237.1 69.3 L 1.1 69.3 Z M 1.1 3.6 "></path></clipPath><g clip-path="url(#clip-126)"><text xml:space="preserve" font-family="Helvetica-Light" font-size="26.0" fill="#000000" transform="matrix(1.00, 0.00, -0.00, -1.00, 76.0, 26.0)">A</text><text xml:space="preserve" font-family="Helvetica-Light" font-size="26.0" fill="#000000" transform="matrix(1.00, 0.00, -0.00, -1.00, 93.3, 26.0)">u</text><text xml:space="preserve" font-family="Helvetica-Light" font-size="26.0" fill="#000000" transform="matrix(1.00, 0.00, -0.00, -1.00, 107.8, 26.0)">p</text><text xml:space="preserve" font-family="Helvetica-Light" font-size="26.0" fill="#000000" transform="matrix(1.00, 0.00, -0.00, -1.00, 123.7, 26.0)">i</text><text xml:space="preserve" font-family="Helvetica-Light" font-size="26.0" fill="#000000" transform="matrix(1.00, 0.00, -0.00, -1.00, 129.5, 26.0)">a</text><text xml:space="preserve" font-family="Helvetica-Light" font-size="26.0" fill="#000000" transform="matrix(1.00, 0.00, -0.00, -1.00, 143.9, 26.0)">i</text><text xml:space="preserve" font-family="Helvetica-Light" font-size="26.0" fill="#000000" transform="matrix(1.00, 0.00, -0.00, -1.00, 149.7, 26.0)">s</text></g></g></g></svg>