<?xml version="1.0" encoding="UTF-8" standalone="no"?><svg xmlns="http://www.w3.org/2000/svg" xmlns:xlink="http://www.w3.org/1999/xlink" clip-rule="evenodd" stroke-miterlimit="4.00" viewBox="0 0 446 16"><desc>SVG generated by Keynote</desc><defs></defs><g transform="matrix(1.00, 0.00, -0.00, -1.00, 0.0, 16.0)"><text xml:space="preserve" font-family="Helvetica-Bold" font-weight="bold" font-size="13.0" fill="#FEFFFF" transform="matrix(1.00, 0.00, -0.00, -1.00, 1.0, 4.0)">L</text><text xml:space="preserve" font-family="Helvetica-Bold" font-weight="bold" font-size="13.0" fill="#FEFFFF" transform="matrix(1.00, 0.00, -0.00, -1.00, 8.2, 4.0)">’</text><text xml:space="preserve" font-family="Helvetica-Bold" font-weight="bold" font-size="13.0" fill="#FEFFFF" transform="matrix(1.00, 0.00, -0.00, -1.00, 11.8, 4.0)">u</text><text xml:space="preserve" font-family="Helvetica-Bold" font-weight="bold" font-size="13.0" fill="#FEFFFF" transform="matrix(1.00, 0.00, -0.00, -1.00, 19.8, 4.0)">t</text><text xml:space="preserve" font-family="Helvetica-Bold" font-weight="bold" font-size="13.0" fill="#FEFFFF" transform="matrix(1.00, 0.00, -0.00, -1.00, 24.1, 4.0)">i</text><text xml:space="preserve" font-family="Helvetica-Bold" font-weight="bold" font-size="13.0" fill="#FEFFFF" transform="matrix(1.00, 0.00, -0.00, -1.00, 27.7, 4.0)">l</text><text xml:space="preserve" font-family="Helvetica-Bold" font-weight="bold" font-size="13.0" fill="#FEFFFF" transform="matrix(1.00, 0.00, -0.00, -1.00, 31.3, 4.0)">i</text><text xml:space="preserve" font-family="Helvetica-Bold" font-weight="bold" font-size="13.0" fill="#FEFFFF" transform="matrix(1.00, 0.00, -0.00, -1.00, 34.9, 4.0)">s</text><text xml:space="preserve" font-family="Helvetica-Bold" font-weight="bold" font-size="13.0" fill="#FEFFFF" transform="matrix(1.00, 0.00, -0.00, -1.00, 42.2, 4.0)">a</text><text xml:space="preserve" font-family="Helvetica-Bold" font-weight="bold" font-size="13.0" fill="#FEFFFF" transform="matrix(1.00, 0.00, -0.00, -1.00, 49.4, 4.0)">t</text><text xml:space="preserve" font-family="Helvetica-Bold" font-weight="bold" font-size="13.0" fill="#FEFFFF" transform="matrix(1.00, 0.00, -0.00, -1.00, 53.7, 4.0)">e</text><text xml:space="preserve" font-family="Helvetica-Bold" font-weight="bold" font-size="13.0" fill="#FEFFFF" transform="matrix(1.00, 0.00, -0.00, -1.00, 61.0, 4.0)">u</text><text xml:space="preserve" font-family="Helvetica-Bold" font-weight="bold" font-size="13.0" fill="#FEFFFF" transform="matrix(1.00, 0.00, -0.00, -1.00, 68.9, 4.0)">r</text><text xml:space="preserve" font-family="Helvetica-Bold" font-weight="bold" font-size="13.0" fill="#FEFFFF" transform="matrix(1.00, 0.00, -0.00, -1.00, 74.0, 4.0)">/</text><text xml:space="preserve" font-family="Helvetica-Bold" font-weight="bold" font-size="13.0" fill="#FEFFFF" transform="matrix(1.00, 0.00, -0.00, -1.00, 77.6, 4.0)">t</text><text xml:space="preserve" font-family="Helvetica-Bold" font-weight="bold" font-size="13.0" fill="#FEFFFF" transform="matrix(1.00, 0.00, -0.00, -1.00, 81.9, 4.0)">r</text><text xml:space="preserve" font-family="Helvetica-Bold" font-weight="bold" font-size="13.0" fill="#FEFFFF" transform="matrix(1.00, 0.00, -0.00, -1.00, 87.0, 4.0)">i</text><text xml:space="preserve" font-family="Helvetica-Bold" font-weight="bold" font-size="13.0" fill="#FEFFFF" transform="matrix(1.00, 0.00, -0.00, -1.00, 90.6, 4.0)">c</text><text xml:space="preserve" font-family="Helvetica-Bold" font-weight="bold" font-size="13.0" fill="#FEFFFF" transform="matrix(1.00, 0.00, -0.00, -1.00, 97.8, 4.0)">e</text><text xml:space="preserve" font-family="Helvetica-Bold" font-weight="bold" font-size="13.0" fill="#FEFFFF" transform="matrix(1.00, 0.00, -0.00, -1.00, 105.0, 4.0)"> </text><text xml:space="preserve" font-family="Helvetica-Bold" font-weight="bold" font-size="13.0" fill="#FEFFFF" transform="matrix(1.00, 0.00, -0.00, -1.00, 108.6, 4.0)">p</text><text xml:space="preserve" font-family="Helvetica-Bold" font-weight="bold" font-size="13.0" fill="#FEFFFF" transform="matrix(1.00, 0.00, -0.00, -1.00, 116.6, 4.0)">e</text><text xml:space="preserve" font-family="Helvetica-Bold" font-weight="bold" font-size="13.0" fill="#FEFFFF" transform="matrix(1.00, 0.00, -0.00, -1.00, 123.8, 4.0)">u</text><text xml:space="preserve" font-family="Helvetica-Bold" font-weight="bold" font-size="13.0" fill="#FEFFFF" transform="matrix(1.00, 0.00, -0.00, -1.00, 131.8, 4.0)">t</text><text xml:space="preserve" font-family="Helvetica-Bold" font-weight="bold" font-size="13.0" fill="#FEFFFF" transform="matrix(1.00, 0.00, -0.00, -1.00, 136.1, 4.0)"> </text><text xml:space="preserve" font-family="Helvetica-Bold" font-weight="bold" font-size="13.0" fill="#FEFFFF" transform="matrix(1.00, 0.00, -0.00, -1.00, 139.7, 4.0)">é</text><text xml:space="preserve" font-family="Helvetica-Bold" font-weight="bold" font-size="13.0" fill="#FEFFFF" transform="matrix(1.00, 0.00, -0.00, -1.00, 146.9, 4.0)">c</text><text xml:space="preserve" font-family="Helvetica-Bold" font-weight="bold" font-size="13.0" fill="#FEFFFF" transform="matrix(1.00, 0.00, -0.00, -1.00, 154.2, 4.0)">o</text><text xml:space="preserve" font-family="Helvetica-Bold" font-weight="bold" font-size="13.0" fill="#FEFFFF" transform="matrix(1.00, 0.00, -0.00, -1.00, 162.1, 4.0)">u</text><text xml:space="preserve" font-family="Helvetica-Bold" font-weight="bold" font-size="13.0" fill="#FEFFFF" transform="matrix(1.00, 0.00, -0.00, -1.00, 170.0, 4.0)">t</text><text xml:space="preserve" font-family="Helvetica-Bold" font-weight="bold" font-size="13.0" fill="#FEFFFF" transform="matrix(1.00, 0.00, -0.00, -1.00, 174.4, 4.0)">e</text><text xml:space="preserve" font-family="Helvetica-Bold" font-weight="bold" font-size="13.0" fill="#FEFFFF" transform="matrix(1.00, 0.00, -0.00, -1.00, 181.6, 4.0)">r</text><text xml:space="preserve" font-family="Helvetica-Bold" font-weight="bold" font-size="13.0" fill="#FEFFFF" transform="matrix(1.00, 0.00, -0.00, -1.00, 186.7, 4.0)"> </text><text xml:space="preserve" font-family="Helvetica-Bold" font-weight="bold" font-size="13.0" fill="#FEFFFF" transform="matrix(1.00, 0.00, -0.00, -1.00, 190.3, 4.0)">a</text><text xml:space="preserve" font-family="Helvetica-Bold" font-weight="bold" font-size="13.0" fill="#FEFFFF" transform="matrix(1.00, 0.00, -0.00, -1.00, 197.5, 4.0)">u</text><text xml:space="preserve" font-family="Helvetica-Bold" font-weight="bold" font-size="13.0" fill="#FEFFFF" transform="matrix(1.00, 0.00, -0.00, -1.00, 205.4, 4.0)">t</text><text xml:space="preserve" font-family="Helvetica-Bold" font-weight="bold" font-size="13.0" fill="#FEFFFF" transform="matrix(1.00, 0.00, -0.00, -1.00, 209.8, 4.0)">a</text><text xml:space="preserve" font-family="Helvetica-Bold" font-weight="bold" font-size="13.0" fill="#FEFFFF" transform="matrix(1.00, 0.00, -0.00, -1.00, 217.0, 4.0)">n</text><text xml:space="preserve" font-family="Helvetica-Bold" font-weight="bold" font-size="13.0" fill="#FEFFFF" transform="matrix(1.00, 0.00, -0.00, -1.00, 224.9, 4.0)">t</text><text xml:space="preserve" font-family="Helvetica-Bold" font-weight="bold" font-size="13.0" fill="#FEFFFF" transform="matrix(1.00, 0.00, -0.00, -1.00, 229.3, 4.0)"> </text><text xml:space="preserve" font-family="Helvetica-Bold" font-weight="bold" font-size="13.0" fill="#FEFFFF" transform="matrix(1.00, 0.00, -0.00, -1.00, 232.9, 4.0)">d</text><text xml:space="preserve" font-family="Helvetica-Bold" font-weight="bold" font-size="13.0" fill="#FEFFFF" transform="matrix(1.00, 0.00, -0.00, -1.00, 240.8, 4.0)">e</text><text xml:space="preserve" font-family="Helvetica-Bold" font-weight="bold" font-size="13.0" fill="#FEFFFF" transform="matrix(1.00, 0.00, -0.00, -1.00, 248.0, 4.0)"> </text><text xml:space="preserve" font-family="Helvetica-Bold" font-weight="bold" font-size="13.0" fill="#FEFFFF" transform="matrix(1.00, 0.00, -0.00, -1.00, 251.7, 4.0)">«</text><text xml:space="preserve" font-family="Helvetica-Bold" font-weight="bold" font-size="13.0" fill="#FEFFFF" transform="matrix(1.00, 0.00, -0.00, -1.00, 258.9, 4.0)"> </text><text xml:space="preserve" font-family="Helvetica-Bold" font-weight="bold" font-size="13.0" fill="#FEFFFF" transform="matrix(1.00, 0.00, -0.00, -1.00, 262.5, 4.0)">r</text><text xml:space="preserve" font-family="Helvetica-Bold" font-weight="bold" font-size="13.0" fill="#FEFFFF" transform="matrix(1.00, 0.00, -0.00, -1.00, 267.6, 4.0)">e</text><text xml:space="preserve" font-family="Helvetica-Bold" font-weight="bold" font-size="13.0" fill="#FEFFFF" transform="matrix(1.00, 0.00, -0.00, -1.00, 274.8, 4.0)">g</text><text xml:space="preserve" font-family="Helvetica-Bold" font-weight="bold" font-size="13.0" fill="#FEFFFF" transform="matrix(1.00, 0.00, -0.00, -1.00, 282.7, 4.0)">a</text><text xml:space="preserve" font-family="Helvetica-Bold" font-weight="bold" font-size="13.0" fill="#FEFFFF" transform="matrix(1.00, 0.00, -0.00, -1.00, 290.0, 4.0)">r</text><text xml:space="preserve" font-family="Helvetica-Bold" font-weight="bold" font-size="13.0" fill="#FEFFFF" transform="matrix(1.00, 0.00, -0.00, -1.00, 295.0, 4.0)">d</text><text xml:space="preserve" font-family="Helvetica-Bold" font-weight="bold" font-size="13.0" fill="#FEFFFF" transform="matrix(1.00, 0.00, -0.00, -1.00, 303.0, 4.0)"> </text><text xml:space="preserve" font-family="Helvetica-Bold" font-weight="bold" font-size="13.0" fill="#FEFFFF" transform="matrix(1.00, 0.00, -0.00, -1.00, 306.6, 4.0)">»</text><text xml:space="preserve" font-family="Helvetica-Bold" font-weight="bold" font-size="13.0" fill="#FEFFFF" transform="matrix(1.00, 0.00, -0.00, -1.00, 313.8, 4.0)"> </text><text xml:space="preserve" font-family="Helvetica-Bold" font-weight="bold" font-size="13.0" fill="#FEFFFF" transform="matrix(1.00, 0.00, -0.00, -1.00, 317.4, 4.0)">q</text><text xml:space="preserve" font-family="Helvetica-Bold" font-weight="bold" font-size="13.0" fill="#FEFFFF" transform="matrix(1.00, 0.00, -0.00, -1.00, 325.4, 4.0)">u</text><text xml:space="preserve" font-family="Helvetica-Bold" font-weight="bold" font-size="13.0" fill="#FEFFFF" transform="matrix(1.00, 0.00, -0.00, -1.00, 333.3, 4.0)">’</text><text xml:space="preserve" font-family="Helvetica-Bold" font-weight="bold" font-size="13.0" fill="#FEFFFF" transform="matrix(1.00, 0.00, -0.00, -1.00, 336.9, 4.0)">i</text><text xml:space="preserve" font-family="Helvetica-Bold" font-weight="bold" font-size="13.0" fill="#FEFFFF" transform="matrix(1.00, 0.00, -0.00, -1.00, 340.5, 4.0)">l</text><text xml:space="preserve" font-family="Helvetica-Bold" font-weight="bold" font-size="13.0" fill="#FEFFFF" transform="matrix(1.00, 0.00, -0.00, -1.00, 344.1, 4.0)">/</text><text xml:space="preserve" font-family="Helvetica-Bold" font-weight="bold" font-size="13.0" fill="#FEFFFF" transform="matrix(1.00, 0.00, -0.00, -1.00, 347.7, 4.0)">e</text><text xml:space="preserve" font-family="Helvetica-Bold" font-weight="bold" font-size="13.0" fill="#FEFFFF" transform="matrix(1.00, 0.00, -0.00, -1.00, 355.0, 4.0)">l</text><text xml:space="preserve" font-family="Helvetica-Bold" font-weight="bold" font-size="13.0" fill="#FEFFFF" transform="matrix(1.00, 0.00, -0.00, -1.00, 358.6, 4.0)">l</text><text xml:space="preserve" font-family="Helvetica-Bold" font-weight="bold" font-size="13.0" fill="#FEFFFF" transform="matrix(1.00, 0.00, -0.00, -1.00, 362.2, 4.0)">e</text><text xml:space="preserve" font-family="Helvetica-Bold" font-weight="bold" font-size="13.0" fill="#FEFFFF" transform="matrix(1.00, 0.00, -0.00, -1.00, 369.4, 4.0)"> </text><text xml:space="preserve" font-family="Helvetica-Bold" font-weight="bold" font-size="13.0" fill="#FEFFFF" transform="matrix(1.00, 0.00, -0.00, -1.00, 373.0, 4.0)">l</text><text xml:space="preserve" font-family="Helvetica-Bold" font-weight="bold" font-size="13.0" fill="#FEFFFF" transform="matrix(1.00, 0.00, -0.00, -1.00, 376.6, 4.0)">e</text><text xml:space="preserve" font-family="Helvetica-Bold" font-weight="bold" font-size="13.0" fill="#FEFFFF" transform="matrix(1.00, 0.00, -0.00, -1.00, 383.9, 4.0)"> </text><text xml:space="preserve" font-family="Helvetica-Bold" font-weight="bold" font-size="13.0" fill="#FEFFFF" transform="matrix(1.00, 0.00, -0.00, -1.00, 387.5, 4.0)">s</text><text xml:space="preserve" font-family="Helvetica-Bold" font-weight="bold" font-size="13.0" fill="#FEFFFF" transform="matrix(1.00, 0.00, -0.00, -1.00, 394.7, 4.0)">o</text><text xml:space="preserve" font-family="Helvetica-Bold" font-weight="bold" font-size="13.0" fill="#FEFFFF" transform="matrix(1.00, 0.00, -0.00, -1.00, 402.6, 4.0)">u</text><text xml:space="preserve" font-family="Helvetica-Bold" font-weight="bold" font-size="13.0" fill="#FEFFFF" transform="matrix(1.00, 0.00, -0.00, -1.00, 410.6, 4.0)">h</text><text xml:space="preserve" font-family="Helvetica-Bold" font-weight="bold" font-size="13.0" fill="#FEFFFF" transform="matrix(1.00, 0.00, -0.00, -1.00, 418.5, 4.0)">a</text><text xml:space="preserve" font-family="Helvetica-Bold" font-weight="bold" font-size="13.0" fill="#FEFFFF" transform="matrix(1.00, 0.00, -0.00, -1.00, 425.7, 4.0)">i</text><text xml:space="preserve" font-family="Helvetica-Bold" font-weight="bold" font-size="13.0" fill="#FEFFFF" transform="matrix(1.00, 0.00, -0.00, -1.00, 429.4, 4.0)">t</text><text xml:space="preserve" font-family="Helvetica-Bold" font-weight="bold" font-size="13.0" fill="#FEFFFF" transform="matrix(1.00, 0.00, -0.00, -1.00, 433.7, 4.0)">e</text><text xml:space="preserve" font-family="Helvetica-Bold" font-weight="bold" font-size="13.0" fill="#FEFFFF" transform="matrix(1.00, 0.00, -0.00, -1.00, 440.9, 4.0)">.</text></g></svg>